<svg id="Layer_1" data-name="Layer 1" xmlns="http://www.w3.org/2000/svg" viewBox="0 0 1316.3 308.3"><defs><style>.cls-1{fill:#1568a0;}.cls-2{fill:#083d36;}</style></defs><path class="cls-1" d="M838.1,175.7c-11.2,2.7-19.7,5.6-35.3,5.6-40.7,0-70.4-30.7-70.4-68.7s29.7-68.2,70.4-68.2c16.2,0,23.9,3.2,33.8,5V75.2c-8.5-7.5-19.7-11-32.1-11-27.5,0-49.3,21.8-49.3,48.4s21.8,48.8,49.5,48.8c13.1,0,24.9-3.2,33.4-10.9Z" transform="translate(-142.2 -43.8)"/><path class="cls-1" d="M873.8,160.1H889c13.3,0,27.2-.2,33-.6v20.3c-5.8-.4-19.7-.8-33-.8H850.3c.3-10.6.7-25.8.7-34.5V81.2c0-13.3-.4-28.5-.7-34.3h37.2c13.3,0,27-.6,33-1V66.4c-6-.6-19.7-.8-33-.8H873.8V99.9h12.7c13.1,0,25.3-.2,31.3-.6v20.1c-6-.4-18.2-.6-31.3-.6H873.8Z" transform="translate(-142.2 -43.8)"/><path class="cls-1" d="M934.5,179c.4-5.4.8-17.7.8-28V81.8c0-11.8-.4-27.2-.8-37.6h5.1c7.3,8.1,11.5,12.3,17.9,18.9l64,71.2V81.4c0-11-.2-26.4-.5-34.5h23.1c-.4,8.5-.8,23.9-.8,34.5v70.8c0,8.1.2,17.9.8,29.1h-4.8c-5.4-6.3-9.5-11.2-15.6-17.7L957.3,90.5l-.2,60.7c0,10.1.2,22.4.6,27.8Z" transform="translate(-142.2 -43.8)"/><path class="cls-1" d="M1114.3,46.9c10.6,0,22.5-.4,27.1-.8V66.4c-4.6-.4-16.5-.8-27.1-.8h-8.5c-.2,7.1-.2,16.8-.2,24.9v54c0,13.1.3,28.5.8,34.5h-19.6c.3-6,.6-21.4.6-34.5v-54c0-8.1-.1-17.8-.4-24.9h-8.5c-10.5,0-22.1.4-26.9.8V46.1c4.8.4,16.4.8,26.9.8Z" transform="translate(-142.2 -43.8)"/><path class="cls-1" d="M1174.7,145.2c0,13.2.2,27.8.8,33.8h-24.3c.5-6,.7-20.6.7-33.8V81.4c0-13.1-.2-28.7-.7-34.5h34.5c30.7,0,47.4,16.9,47.4,40.1,0,20.6-12.3,31.4-26,35.9C1221.8,140,1237,164,1253,179h-30.3c-9.2-12-25.8-34.9-35.1-52.5a42.3,42.3,0,0,1-4.8.4h-8.1Zm0-34.9h11.4c14.1,0,24.1-9.2,24.1-22.7,0-11.8-8.5-22.8-25.5-22.8h-10Z" transform="translate(-142.2 -43.8)"/><path class="cls-1" d="M1349.1,179c-1.8-5-4.7-11.6-7.6-18.7l-7.5-17.9h-47.8l-7.3,17.5c-3.5,8.1-5.8,13.9-7.6,19.1h-24.5c4.7-8.5,9.7-18.3,14.5-29.3l46.9-105.1h6.3l47.9,105.1c5,11,10.6,21.4,15,29.3Zm-39-94.5L1293.9,124h32.4Z" transform="translate(-142.2 -43.8)"/><path class="cls-1" d="M1405.2,159.9h21c13.1,0,26.1-.4,31.8-.8v20.7c-5.7-.4-18.7-.8-31.8-.8h-44.5c.3-10.6.7-25.8.7-34.5V81.4c0-13.3-.4-28.7-.7-34.5H1406c-.4,5.8-.8,21.2-.8,34.5Z" transform="translate(-142.2 -43.8)"/><path class="cls-2" d="M796.3,309.5l29-70.4c3.2-7.9,6.8-16.2,8.7-22.3h23.8a295.5,295.5,0,0,0-14,29.1L797.3,351.8h-3.8L747,245.9c-4.7-10.4-9.6-21.4-14.2-29.1h25.9c1.7,6.3,4.9,14.4,8.1,22.1Z" transform="translate(-142.2 -43.8)"/><path class="cls-2" d="M935.8,348.9c-1.7-5-4.5-11.6-7.3-18.7l-7.4-18H874.2L867,329.8c-3.4,8.1-5.6,13.9-7.3,19.1h-24c4.5-8.5,9.4-18.3,14.1-29.3l46-105.2H902l46.9,105.2c4.9,11,10.4,21.4,14.7,29.3Zm-38.1-94.5-15.9,39.5h31.7Z" transform="translate(-142.2 -43.8)"/><path class="cls-2" d="M1063.8,345.6c-10.9,2.7-19.3,5.6-34.6,5.6-39.9,0-69-30.7-69-68.7s29.1-68.3,69-68.3c15.9,0,23.5,3.3,33.1,5.1v25.8c-8.3-7.5-19.3-11-31.4-11a48.6,48.6,0,0,0,.2,97.2c12.9,0,24.4-3.2,32.7-11Z" transform="translate(-142.2 -43.8)"/><path class="cls-2" d="M1100.3,216.8c-.4,5.2-.8,20.8-.8,34.5V296c0,21.6,12.5,35.1,29.2,35.1s29.1-13.5,29.1-35.1V251.3c0-11-.2-26.4-.8-34.5h23.6c-.3,8.4-.5,23.9-.5,34.5v44.2c0,34.5-22,55.5-51.4,55.5s-51.5-20.8-51.5-55.5V251.3c0-13.7-.3-29.3-.7-34.5Z" transform="translate(-142.2 -43.8)"/><path class="cls-2" d="M1222,216.8c-.3,5.2-.7,20.8-.7,34.5V296c0,21.6,12.5,35.1,29.1,35.1s29.1-13.5,29.1-35.1V251.3c0-11-.2-26.4-.8-34.5h23.7c-.4,8.4-.6,23.9-.6,34.5v44.2c0,34.5-21.9,55.5-51.4,55.5s-51.4-20.8-51.4-55.5V251.3c0-13.7-.4-29.3-.8-34.5Z" transform="translate(-142.2 -43.8)"/><path class="cls-2" d="M1311.4,348.9c1.6-6.4,3.8-21,5.9-34.9l15.3-99.8h5.7l47.6,100.3,48.8-100.3h6L1453,316.9c1.9,14,3.4,23.1,5.5,32h-25.3c0-5.6-.8-13.1-1.9-24.5l-6.1-57.3L1387.4,350h-5.6l-37.3-82.9-7.5,57.5a227.4,227.4,0,0,0-2.5,24.3Z" transform="translate(-142.2 -43.8)"/><path class="cls-1" d="M377.1,341.8a30.9,30.9,0,0,1-.6-5.5c0-6.3,2.7-11.9,8.2-16.9s8.2-8.5,8.2-10.7-.1-3.2-.3-5.3-.5-4.5-1-7.2L374.5,196c-.6-3.7-1-8.1-1.5-13.4s-.7-10.9-.8-16.9c-.8,4-1.8,8-2.9,12.2s-2.7,9-4.6,14.5l-51,140.5v.4c-4.4,11.2-8.4,16.8-12.2,16.8s-4.9-1.3-6.8-3.9-4.1-7.7-6.8-15.4L240.5,192c-1.6-4.7-2.9-9.3-4-14s-1.9-9.2-2.5-13.5c-.2,4.9-.6,9.8-1.2,14.6s-1.3,9.2-2.1,13.3L209.6,297.5c-.7,3.1-1.2,5.7-1.5,7.9a45,45,0,0,0-.5,4.5c0,3.3,2.5,7.1,7.7,11.5s7.6,9.4,7.6,14.9-1.3,8.6-3.9,11.4-6.2,4.2-10.7,4.2H156.2a13,13,0,0,1-9.9-4.3,15.4,15.4,0,0,1-4.1-10.9c0-4.7.9-8.6,2.7-11.5s5.3-5.5,10.3-7.9l1.3-.6c5.6-3.1,9.2-8.4,10.6-15.8L208,97.5a3.8,3.8,0,0,1,.1-1A67.7,67.7,0,0,0,209.9,84c0-2.8-3-6.5-9.2-11.1s-9.2-10-9.2-16.2c0-4.1,1.4-7.3,4.1-9.5s6.6-3.4,11.7-3.4h63.9c4.3,0,7.6,1.3,9.8,3.8s3.3,6.3,3.3,11.4-2.6,10-7.9,15.1-8,10-8,14.3a30.5,30.5,0,0,0,.6,6,40.5,40.5,0,0,0,1.9,6.7l32.9,96.6c1.3,3.7,2.6,8.2,4,13.6s2.8,12.1,4.4,20.3c1.7-7.8,3.3-14.6,4.9-20.4a110,110,0,0,1,5.1-15.6l34.7-93.8c1.4-4.1,2.5-7.4,3.1-10a30.5,30.5,0,0,0,.9-7c0-2.9-2.9-6.6-8.6-11.1s-8.7-9.3-8.7-14.7,1.3-8.9,4-11.4,6.7-3.8,12-3.8H419c5.4,0,9.5,1.2,12.1,3.7s4,6.1,4,11.1a20.7,20.7,0,0,1-1.7,7.8,14.6,14.6,0,0,1-4.1,5.9c-.6.4-1.4,1.1-2.7,1.9-6.8,4.8-10.3,10.2-10.3,16.3a43.4,43.4,0,0,0,.9,6.8c.2,1.3.4,2.3.5,3.2l34.7,195.7a36.1,36.1,0,0,0,4.4,13c.3.6.1.3.1.3C424.3,324.8,377.1,341.8,377.1,341.8Z" transform="translate(-142.2 -43.8)"/><path class="cls-2" d="M459.5,313a47.9,47.9,0,0,0,5.8,4.8l3,1.9c6.2,3.8,9.3,9.1,9.3,15.8,0,4.6,27.6,11,24.5,14.2s-35.8,2.2-40.1,2.2H390.1a12.7,12.7,0,0,1-10-4.2,16.5,16.5,0,0,1-3-5.9S425.7,328,459.5,313Z" transform="translate(-142.2 -43.8)"/><path class="cls-1" d="M483.5,296.9V99.9c0-5.5-.5-9.8-1.6-12.6a13.9,13.9,0,0,0-5.8-6.9,50.4,50.4,0,0,0-4.6-2.6c-7.7-3.7-11.5-9.1-11.5-15.9s1.6-10.9,4.8-13.8,8.4-4.3,15.4-4.3h47.5c23.5,0,44.3,2.6,62.1,8.3a155.3,155.3,0,0,1,29.4,12.8c5.3,24-4.1,55.9-4.1,55.9C600,98.1,585,89,564.9,89c-7.6,0-13,1.9-16.3,5.7s-4.9,10-4.9,18.7v135C524.4,272,483.5,296.9,483.5,296.9Z" transform="translate(-142.2 -43.8)"/><path class="cls-2" d="M543.4,261.5l-.2,23c0,9.8,1.3,16.3,3.8,19.7s7.1,4.9,13.9,4.9q35.7,0,55.5-26.7t19.8-74.8c0-31.9-2.8-53.7-14.9-75.4,0,0,13.9-22.1,13.9-56,0,0-.6-.8,2.6,1.9a181.6,181.6,0,0,1,50.3,63.6q17.5,36.9,17.5,79.9,0,61.9-35.1,96.1t-99.6,34.2H479.8c-7.1,0-12.2-1.4-15.4-4.4s-4.9-7.5-4.9-13.6a16,16,0,0,1,2.3-8.4c.8-1.3-.6-10.3.7-9.4,5.7,4.1,12,0,13.1-.8a14.1,14.1,0,0,0,6.2-6.8c.8-2.2,1-1.6,1.2-5.9C483,302.6,529.5,277.1,543.4,261.5Z" transform="translate(-142.2 -43.8)"/></svg>