<svg xmlns="http://www.w3.org/2000/svg" viewBox="0 0 432 144"><g fill="none" stroke-width="2"><path stroke="#cad0d4" d="M87.23 15.07a.31.31 0 0 0-.31-.31h-2.86a.31.31 0 0 0-.31.31v87.7a.31.31 0 0 0 .31.31h2.86a.31.31 0 0 0 .31-.31v-87.7" vector-effect="non-scaling-stroke"/><path stroke="#80a4ce" d="M63 37.06a1.65 1.65 0 0 0-.48-1.16L51.85 25.23a1.65 1.65 0 0 0-1.16-.48H21.81a1.65 1.65 0 0 0-1.16.48L9.98 35.9a1.65 1.65 0 0 0-.48 1.16v42.99a1.65 1.65 0 0 0 .49 1.17L21.2 92.27a1.65 1.65 0 0 0 1.16.48h27.75a1.65 1.65 0 0 0 1.15-.46L62.5 81.4a1.65 1.65 0 0 0 .5-1.19V37.06" vector-effect="non-scaling-stroke"/><path stroke="#cad0d4" d="M109.53 92.65q.64.26 1.12.02.44-.23.44-.72l.23-66.48q0-.86-.86-.79l-4.2.32q-.82.07-.11.49 2.12 1.28 2.11 2.76c-.08 24.91.7 40.75-.16 60.23-.07 1.55-.86 2.64-1.86 3.71q-.7.76.32.62l2.06-.28q.47-.06.91.12M162.25 99.77c-12.78-7.09-22.82-20.86-31.11-33q-.29-.43.2-.58c14.04-4.46 21.73-18.95 13.72-31.81-6.57-10.54-18.48-10.09-31.33-9.4q-.54.03-.54.58l.28 66.48q.01.5.51.5l4.06.02q.49 0 .18-.38-2.06-2.52-2.03-5.43.29-27.13.13-54.25-.01-2.11.11-4.37.03-.55.59-.53c3.87.18 8.4-.2 11.78.86 9.3 2.93 12.42 11.89 10.97 21.04-1.71 10.81-8.52 14.37-18.48 15.31q-.58.05-.27.54c7.41 11.91 20.17 28.03 33.1 34.08 2.63 1.23 5.26.81 8 .82q1 0 .13-.48M365.42 25.33a.59.58 0 0 0-.59-.58h-4.33q-1.14 0-.24.71 2 1.57 2 2.78l-.02 60.7q0 1.35-2 3.18-.74.67.26.62l4.28-.23q.52-.02.52-.54l.12-66.64M385.39 66.07c.93-.63 2.48-.6 3.26-.94 19.51-8.59 17.96-34.8-3.85-40.04q-3.89-.93-17.02-.06-.51.03-.51.54l.02 66.19q0 .73.73.76l4.25.14q.62.02.22-.44c-1.21-1.42-2.19-3-2.19-4.99q.07-29.39.15-58.82 0-.5.49-.53 6.62-.45 9.01-.07c21.76 3.49 17.76 38.15-4.38 36.63a.59.59 0 0 0-.54.9c7.55 12.01 19.94 27.72 32.93 33.95 2.9 1.39 5.8.96 8.92.96q.34 0 .04-.16c-13.21-6.86-23.74-21.75-31.68-33.25q-.32-.46.15-.77M327.19 29.69q-1.39 1.31-.76 2.88 6.58 16.4 22.59 54.89.26.6.91.56l2.59-.18q.55-.03.2-.45c-1.12-1.35-2.18-2.46-2.87-4.12q-11.19-26.87-22.14-53.84-.14-.36-.41-.08-.16.16-.11.34M237.88 85.66l2.3.12q.48.02.52-.46l.36-4.33q.08-.92-.68-.38-10.23 7.35-22.47 4.51c-18.3-4.25-27.97-25.8-15.79-41.64 8.72-11.34 26.63-15.14 38.82-4.92q.71.6.57-.32l-.68-4.47q-.09-.56-.64-.61-4-.39-9.18-1.67c-18.73-4.66-39.39 6.02-40.35 26.75-.91 19.6 15.73 31.29 34.09 29.7q5.29-.45 12.2-2.19.46-.11.93-.09M261.74 40.88c8.94-9.37 25.97-11.54 36.7-2.11q.7.61.52-.3l-1.02-5.08q-.13-.67-.8-.58l-2.01.27q-.47.07-.93-.08c-16.95-5.59-37.48-2-44.65 16.52q-2.67 6.89-1.41 14.31c2.91 17.15 18.52 26.09 35.29 24.04 3.03-.37 9.91-2.71 13.99-2q.53.1.57-.44l.33-4.38q.04-.58-.45-.28-14.91 9.14-28.84 2.04c-16.37-8.35-20.01-28.58-7.29-41.93M168.7 87.61q.46.29 1.01.06a.47.46-11.4 0 0 .29-.43V31.63q0-.63-.63-.63h-3.35q-.84 0-.2.54 1.91 1.61 1.91 4.46.05 23.59 0 47.19-.01 1.87-1.92 3.83-.88.91.37.71l1.72-.28q.43-.07.8.16M175.55 86.55q-1.5-2.47-1.51-7.06-.08-22.37-.02-44.74 0-1.55 1.71-3.08.75-.67-.25-.67h-2.88q-.66 0-.66.65l.06 55.37q0 .47.45.58 1.64.4 2.93-.37.44-.25.17-.68M314.49 64.26l-9.09 21.06q-.23.53-.7.86l-1.07.78q-1.1.79.25.79h4.64q1.35 0 .4-.96l-.55-.55q-.38-.37-.17-.86l8.67-20.41a1.97 1.97 0 0 1 2.31-1.13q18.08 4.63 24.29 20.98.34.88-.35 2.19-.33.65.39.74l2.61.3a.72.72 0 0 0 .75-.99l-21.7-52.71a.54.53 48.8 0 0-.96-.07l-.96 1.65q-.28.48.11.87 2.07 2.07 1.36 3.7-4.38 10.13-8.8 20.4-.2.46-.7.46-6.56-.02-12.81 1.96-.68.21-.18.72c.72.72 1.81 1 2.89.69q4.42-1.28 9.08-.94.48.04.29.47" vector-effect="non-scaling-stroke"/><path stroke="#cad0d4" d="M422.62 88.42a4.48 4.48 0 0 0-4.48-4.48 4.48 4.48 0 0 0-4.48 4.48 4.48 4.48 0 0 0 4.48 4.48 4.48 4.48 0 0 0 4.48-4.48" vector-effect="non-scaling-stroke"/><path stroke="#80a4ce" d="M125.83 126.44c.28-2.65 2.05-7.99-3.34-5.85q-.56.23-.5-.37c.1-1.08 1.82-7.16.08-6.98q-.52.06-.87.46-.22.27-.55.3-.61.06-.53-.55l.16-1.12q.15-1.14-.66-.32l-1.37 1.36q-.38.38-.91.38h-7.8q-.42 0-.67.32-.76.97-.9 2.24-.22 2.05.72.21 1.15-2.27 3.83-1.41.45.14.37.61l-2.01 11.1q-.12.66-.71.97l-.97.49q-1.37.7.17.71l4.38.02q3.61.01.18-.7-.74-.15-.96-1.06-.14-.57-.04-1.13l1.87-10.52q.09-.52.61-.54l4.78-.2a.77.76 4 0 1 .78.89l-2.21 12.6q-.12.69.59.66l.77-.04q.54-.03.51-.57-.17-3.78 2.13-6.64.48-.6 1.13-.21l.44.26q.51.31.38.89c-.43 2.04-2.09 6.56 1.29 6.75a.79.79 0 0 0 .7-1.22l-.69-1.03q-.22-.35-.18-.76M338.54 113.34q.18-.53.23-1.09.15-1.52-.68-.24c-1.74 2.71-7.3 1.73-10.19 1.75q-.61 0-.84.57l-.71 1.79q-.27.66.42.47.72-.2.92-.95.16-.64.82-.64h2.22q.64 0 .54.63c-.67 4.25-1.19 11.74-3.69 12.61q-2.09.74-.02.75l4.62.01q1.76.01.2-.8l-.75-.39q-.51-.27-.41-.83l2-11.31q.1-.59.7-.62l4.62-.17a.79.79 0 0 1 .81.93l-2.13 12.48q-.11.64.53.68l.49.04q.65.05.71-.6c.17-1.87.84-7 3.53-6.88q.82.04.69.85l-.92 5.43q-.08.48.25.84.93 1.01 2.26.24.64-.37.01-.75l-.36-.21q-.47-.28-.36-.82c.43-2.13 1.94-6.63-1.22-7.15q-.46-.08-.87.14l-1.16.59q-.59.3-.48-.35l1.18-6.65q.13-.74-.57-.46l-1.77.7q-.95.37-.62-.59M190.06 123.96l-4.23-9.7q-.2-.46-.7-.51-.76-.07-1.49.02-1.34.16-.39 1.11l.38.38q.38.37.28.89l-2.17 11.13q-.14.72-.84.51l-1.36-.4q-.44-.13-.72.24c-.83 1.09 3.27 3.21 4.27-1.12q.93-4 1.58-8.1a.41.41 0 0 1 .78-.1l4.32 10.42a.58.58 0 0 0 1.11-.12c.33-1.81 1.91-12.93 3.07-13.67q.45-.28.79.12l.53.61q.42.48.76-.06.64-.99-.3-1.91a1.5 1.49 56.6 0 0-1.59-.33c-2.73 1.06-3.22 7.92-3.42 10.48a.35.34 35.4 0 1-.66.11M145.06 127.94a.77.76 10.7 0 1-.62-.9c.3-1.55.16-6.84 3.05-5.3q.47.26.5.79.02.42.29.76.61.8.59-.21-.03-2.1.61-4.08.64-2-.64-.31-1.36 1.8-2.49 1.52-.63-.15-.54-.79l.52-3.64q.08-.53.58-.71 1.82-.66 3.74.07.4.16.34.58-.06.51.25.99.46.72.63-.12l.42-2.13q.14-.71-.59-.71h-8.15q-.73 0-.27.57.34.43.84.69.45.22.38.71c-.43 2.91-1.01 10.96-3.61 12.72q-.81.54.16.55l4.34.02q.8 0 .33-.65-.25-.35-.66-.42M254.51 115.56a.25.25 0 0 1 .08.15l1.99 14.16a.25.25 0 0 0 .47.08l7.39-14.85a.25.25 0 0 1 .11-.11l1.46-.77a.25.25 0 0 0-.12-.47h-4.29a.25.25 0 0 0-.09.48l1.41.57a.25.25 0 0 1 .13.34l-4.71 9.55a.25.25 0 0 1-.47-.07l-1.41-9.46a.25.25 0 0 1 .18-.27l2.17-.65a.25.25 0 0 0-.07-.49h-5.56a.25.25 0 0 0-.17.43l1.5 1.38M370.44 116.44c-.57 2.91-1 10.41-3.61 11.91q-1.13.65.17.65h8.97q.5 0 .72-.45.55-1.13.18-2.31-.31-1.02-.74-.04l-.46 1.07q-.2.48-.72.48h-3.65a.81.81 0 0 1-.8-.95l1.91-10.85q.09-.53.55-.82l1.21-.76q.98-.62-.18-.62h-4.24q-1.31 0-.25.76 1.15.83.94 1.93M400.32 115.04a.43.43 0 0 0 .24.61q1.79.63 2.2-.98a.51.5 10.9 0 0-.43-.63q-1.4-.18-2.01 1M405.14 115.83l-.32-1.56q-.44-2.13-.76.02-.26 1.75.4 3.35a1.09 1.09 0 0 0 2.03-.04q.68-1.85.42-3.75-.13-.98-.57-.09-.4.79-.41 1.66-.07 3.94-.79.41M154.45 117.39q.91-.83.24-1.65-.27-.33-.69-.22-.67.2-.88 1.13-.13.57.42.74l.37.12a.58.55 31.3 0 0 .54-.12M236.62 115.99q-1.5-1.09-1.98.59a.81.81 0 0 0 1.2.91l.75-.46a.63.62 46.9 0 0 .03-1.04" vector-effect="non-scaling-stroke"/><path stroke="#80a4ce" d="m401.04 117.24-.26.08q-.32.11-.06.33c.97.83 3.36.16 2.34-1.44q-.35-.54-.81-.08l-.95.94q-.11.11-.26.17M396.23 127.06l.89-4.83q.11-.59.7-.48.75.15 1.21-.38.51-.59-.24-.83l-1.01-.31q-.43-.14-.26-.55.61-1.44.36-2.94-.17-.96-.89-.31-1.35 1.21-.95 3.05.11.55-.44.68l-1.31.29q-1.25.29-.12.88l.88.45q.32.17.27.54l-.74 5.38a1.3 1.3 0 0 0 1.12 1.47q1.81.25 2.77-1.2 1.06-1.6-.48-.48-.57.41-1.32.23-.53-.12-.44-.66M170.73 122.97l-.76 4.35a1.65 1.64 1.3 0 0 1.83 1.91q1.45-.19 2.05-1.41.58-1.21-.53-.46l-.9.6a.52.52 0 0 1-.8-.52l.94-5.35q.11-.65.75-.5.64.14 1.25-.09.72-.27.16-.8-.43-.41-1.07-.15-.86.36-.71-.56l.42-2.64q.06-.39-.18-.71-.26-.34-.91-.06-.51.22-.52.78-.04 2.38-1.97 3.64-.2.13.23.26.36.1.63.79.17.45.09.92M358.75 127.5l.86-5.47q.12-.72.83-.56.9.21 1.71-.31.88-.55-.16-.61l-1.51-.08q-.81-.04-.58-.82l.66-2.25q.19-.63-.44-.85-.69-.25-1.14.34-.34.43-.29.97.24 2.43-2.02 2.83-1.86.34 0 .69l.92.17q.51.1.41.6l-1.01 5.26a1.55 1.54-84.1 0 0 1.49 1.84q1.82.03 2.32-1.64.33-1.11-.49-.29l-.65.64q-1.17 1.18-.91-.46M134.14 127.25c-1 .47-3.94 1.61-3.87-.68q.02-.56.54-.76c2.22-.86 5.64-2.88 3.55-5.32a2.04 2.04 0 0 0-2.85-.26c-6.69 5.48-.16 12.71 3.06 7.5q.59-.96-.43-.48M151.97 122.19c.18 2.76-2.63 7.19 1.77 6.98a.45.45 0 0 0 .27-.8l-.61-.5q-.43-.35-.33-.89c.38-2.06 2.58-7.43-1.41-6.99q-1.78.19-.44 1.37.21.18.34.34.41.48.41.49" vector-effect="non-scaling-stroke"/><path stroke="#80a4ce" d="m157.65 121.86-1.18 6.44q-.12.7.59.7h.39q.56 0 .63-.56.43-3.46 1.94-6.57.4-.82.93-.07l.47.67q.33.46.76.1.77-.62.55-1.62-.1-.48-.53-.72-1.27-.73-2.21.41-.38.45-.83.08l-.64-.52q-.42-.35-.93-.13-.67.29-1.16.87-2.95 3.48.33.82.24-.19.53-.25.45-.1.36.35M164.86 128.27l-1.43-1.22q-.34-.29-.58.08l-.23.35q-.28.42.05.8c1.89 2.16 4.8.83 5.25-1.84q.08-.49-.15-.93c-.65-1.21-3.42-3.03-1.71-4.41q.49-.39.8.15l.28.47q.33.54.87.23l.33-.19q.6-.35.16-.88-1.16-1.39-3.12-.7-.52.18-.8.65-1.68 2.83 1.11 4.91.52.39.55 1.04.03 1.12-1.17 1.53a.22.21-32.6 0 1-.21-.04M202.26 127.07l.99-5.72q.08-.41-.29-.62c-5.22-3-8.65 3.01-6.84 7.66q.2.5.7.66 1.68.57 3.28-.24.45-.23.88.03 1 .6 1.99.05.82-.46-.01-.9l-.35-.19q-.44-.23-.35-.73M216.92 126.86l.7-5.09q.07-.55-.28-1c-1.25-1.58-2.6-.63-3.88.25q-.43.29-.79-.08-1.81-1.9-3.82-.06-.38.34-.65-.09c-.6-.93-1.88-1.11-2.43-.17q-.28.48.21.75l.35.18q.48.26.38.8l-1.16 6.14q-.1.51.43.51h.54q.6 0 .74-.59c.58-2.49.31-5.55 2.99-6.92a.75.75 0 0 1 1.08.79l-1.1 6.17q-.09.55.47.55h.58q.61 0 .68-.61c.23-2.02.76-6.72 3.45-6.87q.81-.04.66.75l-1.1 5.82q-.09.51.35.79 1.04.67 2.22 0 .58-.33.11-.81l-.48-.47q-.31-.31-.25-.74M221.92 125.87c2.44-1.05 4.78-2.03 4.1-4.97q-.11-.49-.58-.68c-3.36-1.4-5.74 3.05-5.75 5.78 0 3.82 4.39 4.34 6.22 1.48q.1-.15-.08-.2-.14-.05-.28-.11-.32-.14-.59.09c-1.1.95-3.16 1.34-3.45-.66q-.08-.52.41-.73M233.81 122.16l-.92 5.65a1.26 1.26 0 0 0 1.68 1.39l.78-.28q.78-.29.13-.82l-.45-.37q-.38-.31-.3-.78l.88-5.79q.1-.66-.52-.92-1.62-.69-2.38.73-1.24 2.28.31.55.31-.36.58-.06.28.3.21.7M244.96 127.11c.27-1.77 1.89-7.51-1.59-7.12q-.45.05-.84.29l-.86.51q-.45.26-.82-.1-.87-.87-2.06-.69-.63.1-.43.71 1.27 3.71-.52 7.41-.36.74.46.8l.93.07a.74.74 0 0 0 .79-.79q-.23-3.53 1.87-6.2.33-.42.86-.4c2.31.04.65 4.54.32 6.22a1.22 1.22 0 0 0 1.49 1.42l1.23-.3q1.27-.32.09-.89l-.56-.27q-.43-.2-.36-.67M269.6 127.02l.93-5.7q.08-.49-.37-.7c-8.73-4.08-9.56 11.99-2.92 8.09q.48-.28.91.07 1.01.82 2.11.17.46-.28.31-.8-.12-.4-.45-.44-.62-.07-.52-.69M276.97 121.43q.24.59.68 1.1.28.32.64.09c1.76-1.13-.79-3.77-3.14-2.07q-3.63 2.62-2.53 7.33.13.55.63.82 2.73 1.48 4.88-.69.18-.18.1-.43l-.1-.31q-.21-.69-.67-.13-1.14 1.43-2.72.51-.46-.27-.54-.8-.5-3.28 1.9-5.61.58-.55.87.19M282.48 127.11l.73-5.93q.06-.48-.27-.84c-.79-.85-2.34-.26-2.66.89a.42.41 82.5 0 0 .61.47l.31-.18q.41-.25.3.22c-.42 1.87-2.33 10.88 3.44 6.75q.41-.3.75.08 1.15 1.27 2.62.02.79-.67-.24-.81l-.37-.05q-.75-.1-.55-.82c.22-.79 2.12-7.2.09-6.64q-.49.14-.6.63c-.5 2.2-.6 6.61-3.51 6.88q-.75.08-.65-.67M291.64 121.49l-.78 6.2q-.08.65.48 1.01 1.98 1.27 3.83-.32.37-.32.66.07 1.13 1.5 2.68.17a.54.53 34.5 0 0-.17-.91l-.32-.11q-.61-.21-.51-.84l.97-5.74q.09-.55-.39-.83l-.24-.15q-.48-.28-.67.24c-.84 2.34-.85 6.39-3.34 7.55a.8.8 0 0 1-1.14-.77c.11-1.8 2.11-7.98-1.6-6.84a.63.62 78.4 0 0-.44.67q.1.95.81.49.2-.13.17.11M301.93 121.98l-1.16 6.15q-.12.64.52.77l.57.11q.63.13.67-.52c.09-1.8.87-7.85 3.39-6.84q.52.21.44.77l-.89 5.79a.71.7-89 0 0 .77.81c2.21-.23.15-6.95 4.3-7.37q.74-.08.61.65l-.97 5.44a1.3 1.3 0 0 0 1.65 1.48l.86-.25q.94-.27.13-.81c-1.52-1.02-.02-4.85-.05-6.7q-.01-.58-.49-.91-1.99-1.38-3.58.53-.33.39-.65 0-1.7-2.09-3.96-.28-.41.33-.74-.08-.52-.66-1.42-.62-.44.03-.78.3-.36.29-.6.72-.3.52.27.33l.37-.12q.92-.31.74.65M317.08 120.17c-2.32 1.36-1.96 4.05.21 5.43q.46.29.46.84v.87q0 .62-.6.77-1.21.32-1.8-.94a.63.63 0 0 0-1.08-.09c-1.27 1.84 2.41 3.04 4.12 1.36 2.7-2.65-.13-3.86-1.33-5.99q-.31-.54.13-.98l.31-.31q.5-.5 1 0l.8.79q.34.35.67-.02c1.3-1.46-1.83-2.35-2.89-1.73M353.85 126.58l.94-5.24q.08-.44-.32-.64c-8.13-4.24-10.34 11.38-3.08 8.15q.53-.23 1.02.07 1.16.7 2.2-.16.37-.31.06-.67l-.59-.68q-.31-.36-.23-.83M385.64 120.59c-8.28-4.01-10.15 11.89-2.68 8.22q.44-.21.84.08.93.69 1.88.03.52-.37-.03-.7c-1.28-.78.28-5.98.42-6.81q.09-.57-.43-.82M390.56 127.82l-.31.3q-.5.51-1 0l-1.15-1.14q-.57-.58-.83.2l-.12.37q-.15.47.18.84c2.42 2.67 6.95-.63 4.31-3.98-.59-.75-2.74-2.51-.99-3.36q.59-.29.95.27.47.71 1.16.5a.74.74 0 0 0 .15-1.36q-2.56-1.42-4.22.81a2.4 2.4 0 0 0 .57 3.41q1.22.83 1.55 2.22.13.53-.25.92M25.06 62.23q-4.67 7.47-11.64 12.82-.49.38.13.43c5.69.44 13.4-9.73 16.19-14.02a.32.32 0 0 0-.24-.49c-11.19-1.27-9.39-16.88 1.53-14.54q.47.1.47.58v23.06q0 .4-.14.78l-.39 1.01q-.24.64.45.64h3.22q.39 0 .39-.39l.03-26.96q0-.37-.37-.38c-5.41-.08-11.02-.8-14.13 3-4.02 4.91-1.65 11.53 4.25 13.73q.58.22.25.73M47.79 61.61q7.57-3.27 5.86-10.62c-1.71-7.35-9.74-6.32-15.29-6.22q-.65.01-.65.66l.06 24.8q0 .53-.25 1l-.26.49q-.42.78.46.78h3.2q.42 0 .42-.42l-.13-25.02q-.01-.6.58-.7c10.97-1.83 12.4 13.32 1.56 14.66a.4.4 0 0 0-.28.62c4.1 5.96 8.86 12.36 16.16 14.24a.36.35 70.7 0 0 .3-.63q-7.18-5.44-11.9-13.12-.22-.35.16-.52" vector-effect="non-scaling-stroke"/><path stroke="#cad0d4" d="M137.03 30.19c9.01 9.96 6.95 19.89.61 30.5q-.97 1.61.39.32c7.59-7.24 9.77-19.36 2.81-27.83q-1.64-2-3.69-3.14-.51-.27-.12.15M125.43 66.87c5.89 8.95 15.02 20.84 23.82 26.97a.26.26 0 0 0 .33-.4q-12.47-12.02-21.66-26.71-.3-.48-.86-.48h-1.29q-.75 0-.34.62M392.52 60.05q2.88-2.15 4.5-6.06 6.11-14.8-5.8-24.21-.36-.29-.77-.28-.57.01-.13.38c9.23 7.59 8.48 20.74 1.9 29.87q-.81 1.13.3.3M403.94 94.31q.03.4.56.47a.21.21 0 0 0 .17-.37q-13.19-12.37-22.74-27.84-.7-1.12-2.11-.22-.37.24-.14.61 9.99 15.61 24.26 27.35M208.06 82.94c-17.97-10.85-17.4-33.97-1.47-46.57q.66-.52-.16-.32-1.11.27-3.05 1.88c-15.37 12.76-14.19 37.79 5.41 45.73a.19.19 0 0 0 .21-.3q-.41-.44-.94-.42M264.97 35.43c-9.96 4.37-15.37 15.54-14.64 26.02q1.1 15.8 15.36 22.1c.18.08.25-.05.29-.23q.02-.11-.08-.17c-18.98-10.44-17.96-35.6-.8-47.49q1.12-.78-.13-.23M318.69 60.75q-.39.92.59 1.08 10 1.63 17.52 8.44.64.58.32-.22l-10.61-26.77a.26.26 0 0 0-.48-.01l-7.34 17.48M420.25 91.25q3.07-2.8.67-5.4c-3.89-4.2-9.53 2.79-4.64 5.8q1.88 1.16 3.97-.4" vector-effect="non-scaling-stroke"/><path stroke="#cad0d4" d="M420.25 91.25q-1.44-2.08-.16-4.36.36-.63-.37-.69l-2.92-.23q-.52-.05-.51.48l.04 3.87q.02 2.38.58.07.15-.62.26-1.33.14-.88.75-.24l2.33 2.43" vector-effect="non-scaling-stroke"/><path stroke="#cad0d4" d="M418.06 88.31q.75-.03 1.06-.56.3-.51-.13-.91-.74-.71-1.63-.13a.88.87-21.4 0 0-.38.85c.06.35.69 1.37 1.08.75" vector-effect="non-scaling-stroke"/><path stroke="#80a4ce" d="M130.53 124.05a.4.4 0 0 0 .52.46q1.9-.61 2.5-2.55a.62.62 0 0 0-.87-.74q-1.77.89-2.15 2.83M200.94 121.19c-3.31-.72-5.22 6.56-1.98 6.86q.61.06.93-.47 1.61-2.67 1.45-5.91a.52.5 6 0 0-.4-.48M221.8 123.88q-.19 1.06.78.58 1.42-.69 2.18-2.14a.78.78 0 0 0-1.02-1.07q-1.61.73-1.94 2.63M267.13 121.11c-2.02.85-4.06 6.31-1.11 6.95a1.48 1.47-77.9 0 0 1.75-1.14l.94-4.5q.45-2.15-1.58-1.31M352.43 121.13c-2.89-.79-3.86 4.12-3.52 5.89q.1.52.56.78c2.56 1.46 3.37-4.01 3.49-5.94q.03-.58-.53-.73M381.016 128.03a3.67 1.83 107.5 0 0 2.85-2.95 3.67 1.83 107.5 0 0-.642-4.05 3.67 1.83 107.5 0 0-2.85 2.95 3.67 1.83 107.5 0 0 .642 4.05" vector-effect="non-scaling-stroke"/></g><path fill="#fff" d="M0 0h432v144H0V0Zm87.23 15.07a.31.31 0 0 0-.31-.31h-2.86a.31.31 0 0 0-.31.31v87.7a.31.31 0 0 0 .31.31h2.86a.31.31 0 0 0 .31-.31v-87.7ZM63 37.06a1.65 1.65 0 0 0-.48-1.16L51.85 25.23a1.65 1.65 0 0 0-1.16-.48H21.81a1.65 1.65 0 0 0-1.16.48L9.98 35.9a1.65 1.65 0 0 0-.48 1.16v42.99a1.65 1.65 0 0 0 .49 1.17L21.2 92.27a1.65 1.65 0 0 0 1.16.48h27.75a1.65 1.65 0 0 0 1.15-.46L62.5 81.4a1.65 1.65 0 0 0 .5-1.19V37.06Zm46.53 55.59q.64.26 1.12.02.44-.23.44-.72l.23-66.48q0-.86-.86-.79l-4.2.32q-.82.07-.11.49 2.12 1.28 2.11 2.76c-.08 24.91.7 40.75-.16 60.23-.07 1.55-.86 2.64-1.86 3.71q-.7.76.32.62l2.06-.28q.47-.06.91.12Zm52.72 7.12c-12.78-7.09-22.82-20.86-31.11-33q-.29-.43.2-.58c14.04-4.46 21.73-18.95 13.72-31.81-6.57-10.54-18.48-10.09-31.33-9.4q-.54.03-.54.58l.28 66.48q.01.5.51.5l4.06.02q.49 0 .18-.38-2.06-2.52-2.03-5.43.29-27.13.13-54.25-.01-2.11.11-4.37.03-.55.59-.53c3.87.18 8.4-.2 11.78.86 9.3 2.93 12.42 11.89 10.97 21.04-1.71 10.81-8.52 14.37-18.48 15.31q-.58.05-.27.54c7.41 11.91 20.17 28.03 33.1 34.08 2.63 1.23 5.26.81 8 .82q1 0 .13-.48Zm203.17-74.44a.59.58 0 0 0-.59-.58h-4.33q-1.14 0-.24.71 2 1.57 2 2.78l-.02 60.7q0 1.35-2 3.18-.74.67.26.62l4.28-.23q.52-.02.52-.54l.12-66.64Zm19.97 40.74c.93-.63 2.48-.6 3.26-.94 19.51-8.59 17.96-34.8-3.85-40.04q-3.89-.93-17.02-.06-.51.03-.51.54l.02 66.19q0 .73.73.76l4.25.14q.62.02.22-.44c-1.21-1.42-2.19-3-2.19-4.99q.07-29.39.15-58.82 0-.5.49-.53 6.62-.45 9.01-.07c21.76 3.49 17.76 38.15-4.38 36.63a.59.59 0 0 0-.54.9c7.55 12.01 19.94 27.72 32.93 33.95 2.9 1.39 5.8.96 8.92.96q.34 0 .04-.16c-13.21-6.86-23.74-21.75-31.68-33.25q-.32-.46.15-.77Zm-58.2-36.38q-1.39 1.31-.76 2.88 6.58 16.4 22.59 54.89.26.6.91.56l2.59-.18q.55-.03.2-.45c-1.12-1.35-2.18-2.46-2.87-4.12q-11.19-26.87-22.14-53.84-.14-.36-.41-.08-.16.16-.11.34Zm-89.31 55.97 2.3.12q.48.02.52-.46l.36-4.33q.08-.92-.68-.38-10.23 7.35-22.47 4.51c-18.3-4.25-27.97-25.8-15.79-41.64 8.72-11.34 26.63-15.14 38.82-4.92q.71.6.57-.32l-.68-4.47q-.09-.56-.64-.61-4-.39-9.18-1.67c-18.73-4.66-39.39 6.02-40.35 26.75-.91 19.6 15.73 31.29 34.09 29.7q5.29-.45 12.2-2.19.46-.11.93-.09Zm23.86-44.78c8.94-9.37 25.97-11.54 36.7-2.11q.7.61.52-.3l-1.02-5.08q-.13-.67-.8-.58l-2.01.27q-.47.07-.93-.08c-16.95-5.59-37.48-2-44.65 16.52q-2.67 6.89-1.41 14.31c2.91 17.15 18.52 26.09 35.29 24.04 3.03-.37 9.91-2.71 13.99-2q.53.1.57-.44l.33-4.38q.04-.58-.45-.28-14.91 9.14-28.84 2.04c-16.37-8.35-20.01-28.58-7.29-41.93ZM168.7 87.61q.46.29 1.01.06a.47.46-11.4 0 0 .29-.43V31.63q0-.63-.63-.63h-3.35q-.84 0-.2.54 1.91 1.61 1.91 4.46.05 23.59 0 47.19-.01 1.87-1.92 3.83-.88.91.37.71l1.72-.28q.43-.07.8.16Zm6.85-1.06q-1.5-2.47-1.51-7.06-.08-22.37-.02-44.74 0-1.55 1.71-3.08.75-.67-.25-.67h-2.88q-.66 0-.66.65l.06 55.37q0 .47.45.58 1.64.4 2.93-.37.44-.25.17-.68Zm138.94-22.29-9.09 21.06q-.23.53-.7.86l-1.07.78q-1.1.79.25.79h4.64q1.35 0 .4-.96l-.55-.55q-.38-.37-.17-.86l8.67-20.41a1.97 1.97 0 0 1 2.31-1.13q18.08 4.63 24.29 20.98.34.88-.35 2.19-.33.65.39.74l2.61.3a.72.72 0 0 0 .75-.99l-21.7-52.71a.54.53 48.8 0 0-.96-.07l-.96 1.65q-.28.48.11.87 2.07 2.07 1.36 3.7-4.38 10.13-8.8 20.4-.2.46-.7.46-6.56-.02-12.81 1.96-.68.21-.18.72c.72.72 1.81 1 2.89.69q4.42-1.28 9.08-.94.48.04.29.47Zm108.13 24.16a4.48 4.48 0 0 0-4.48-4.48 4.48 4.48 0 0 0-4.48 4.48 4.48 4.48 0 0 0 4.48 4.48 4.48 4.48 0 0 0 4.48-4.48Zm-296.79 38.02c.28-2.65 2.05-7.99-3.34-5.85q-.56.23-.5-.37c.1-1.08 1.82-7.16.08-6.98q-.52.06-.87.46-.22.27-.55.3-.61.06-.53-.55l.16-1.12q.15-1.14-.66-.32l-1.37 1.36q-.38.38-.91.38h-7.8q-.42 0-.67.32-.76.97-.9 2.24-.22 2.05.72.21 1.15-2.27 3.83-1.41.45.14.37.61l-2.01 11.1q-.12.66-.71.97l-.97.49q-1.37.7.17.71l4.38.02q3.61.01.18-.7-.74-.15-.96-1.06-.14-.57-.04-1.13l1.87-10.52q.09-.52.61-.54l4.78-.2a.77.76 4 0 1 .78.89l-2.21 12.6q-.12.69.59.66l.77-.04q.54-.03.51-.57-.17-3.78 2.13-6.64.48-.6 1.13-.21l.44.26q.51.31.38.89c-.43 2.04-2.09 6.56 1.29 6.75a.79.79 0 0 0 .7-1.22l-.69-1.03q-.22-.35-.18-.76Zm212.71-13.1q.18-.53.23-1.09.15-1.52-.68-.24c-1.74 2.71-7.3 1.73-10.19 1.75q-.61 0-.84.57l-.71 1.79q-.27.66.42.47.72-.2.92-.95.16-.64.82-.64h2.22q.64 0 .54.63c-.67 4.25-1.19 11.74-3.69 12.61q-2.09.74-.02.75l4.62.01q1.76.01.2-.8l-.75-.39q-.51-.27-.41-.83l2-11.31q.1-.59.7-.62l4.62-.17a.79.79 0 0 1 .81.93l-2.13 12.48q-.11.64.53.68l.49.04q.65.05.71-.6c.17-1.87.84-7 3.53-6.88q.82.04.69.85l-.92 5.43q-.08.48.25.84.93 1.01 2.26.24.64-.37.01-.75l-.36-.21q-.47-.28-.36-.82c.43-2.13 1.94-6.63-1.22-7.15q-.46-.08-.87.14l-1.16.59q-.59.3-.48-.35l1.18-6.65q.13-.74-.57-.46l-1.77.7q-.95.37-.62-.59Zm-148.48 10.62-4.23-9.7q-.2-.46-.7-.51-.76-.07-1.49.02-1.34.16-.39 1.11l.38.38q.38.37.28.89l-2.17 11.13q-.14.72-.84.51l-1.36-.4q-.44-.13-.72.24c-.83 1.09 3.27 3.21 4.27-1.12q.93-4 1.58-8.1a.41.41 0 0 1 .78-.1l4.32 10.42a.58.58 0 0 0 1.11-.12c.33-1.81 1.91-12.93 3.07-13.67q.45-.28.79.12l.53.61q.42.48.76-.06.64-.99-.3-1.91a1.5 1.49 56.6 0 0-1.59-.33c-2.73 1.06-3.22 7.92-3.42 10.48a.35.34 35.4 0 1-.66.11Zm-45 3.98a.77.76 10.7 0 1-.62-.9c.3-1.55.16-6.84 3.05-5.3q.47.26.5.79.02.42.29.76.61.8.59-.21-.03-2.1.61-4.08.64-2-.64-.31-1.36 1.8-2.49 1.52-.63-.15-.54-.79l.52-3.64q.08-.53.58-.71 1.82-.66 3.74.07.4.16.34.58-.06.51.25.99.46.72.63-.12l.42-2.13q.14-.71-.59-.71h-8.15q-.73 0-.27.57.34.43.84.69.45.22.38.71c-.43 2.91-1.01 10.96-3.61 12.72q-.81.54.16.55l4.34.02q.8 0 .33-.65-.25-.35-.66-.42Zm109.45-12.38a.25.25 0 0 1 .08.15l1.99 14.16a.25.25 0 0 0 .47.08l7.39-14.85a.25.25 0 0 1 .11-.11l1.46-.77a.25.25 0 0 0-.12-.47h-4.29a.25.25 0 0 0-.09.48l1.41.57a.25.25 0 0 1 .13.34l-4.71 9.55a.25.25 0 0 1-.47-.07l-1.41-9.46a.25.25 0 0 1 .18-.27l2.17-.65a.25.25 0 0 0-.07-.49h-5.56a.25.25 0 0 0-.17.43l1.5 1.38Zm115.93.88c-.57 2.91-1 10.41-3.61 11.91q-1.13.65.17.65h8.97q.5 0 .72-.45.55-1.13.18-2.31-.31-1.02-.74-.04l-.46 1.07q-.2.48-.72.48h-3.65a.81.81 0 0 1-.8-.95l1.91-10.85q.09-.53.55-.82l1.21-.76q.98-.62-.18-.62h-4.24q-1.31 0-.25.76 1.15.83.94 1.93Zm29.88-1.4a.43.43 0 0 0 .24.61q1.79.63 2.2-.98a.51.5 10.9 0 0-.43-.63q-1.4-.18-2.01 1Zm4.82.79-.32-1.56q-.44-2.13-.76.02-.26 1.75.4 3.35a1.09 1.09 0 0 0 2.03-.04q.68-1.85.42-3.75-.13-.98-.57-.09-.4.79-.41 1.66-.07 3.94-.79.41Zm-250.69 1.56q.91-.83.24-1.65-.27-.33-.69-.22-.67.2-.88 1.13-.13.57.42.74l.37.12a.58.55 31.3 0 0 .54-.12Zm82.17-1.4q-1.5-1.09-1.98.59a.81.81 0 0 0 1.2.91l.75-.46a.63.62 46.9 0 0 .03-1.04Zm164.42 1.25-.26.08q-.32.11-.06.33c.97.83 3.36.16 2.34-1.44q-.35-.54-.81-.08l-.95.94q-.11.11-.26.17Zm-4.81 9.82.89-4.83q.11-.59.7-.48.75.15 1.21-.38.51-.59-.24-.83l-1.01-.31q-.43-.14-.26-.55.61-1.44.36-2.94-.17-.96-.89-.31-1.35 1.21-.95 3.05.11.55-.44.68l-1.31.29q-1.25.29-.12.88l.88.45q.32.17.27.54l-.74 5.38a1.3 1.3 0 0 0 1.12 1.47q1.81.25 2.77-1.2 1.06-1.6-.48-.48-.57.41-1.32.23-.53-.12-.44-.66Zm-225.5-4.09-.76 4.35a1.65 1.64 1.3 0 0 1.83 1.91q1.45-.19 2.05-1.41.58-1.21-.53-.46l-.9.6a.52.52 0 0 1-.8-.52l.94-5.35q.11-.65.75-.5.64.14 1.25-.09.72-.27.16-.8-.43-.41-1.07-.15-.86.36-.71-.56l.42-2.64q.06-.39-.18-.71-.26-.34-.91-.06-.51.22-.52.78-.04 2.38-1.97 3.64-.2.13.23.26.36.1.63.79.17.45.09.92Zm188.02 4.53.86-5.47q.12-.72.83-.56.9.21 1.71-.31.88-.55-.16-.61l-1.51-.08q-.81-.04-.58-.82l.66-2.25q.19-.63-.44-.85-.69-.25-1.14.34-.34.43-.29.97.24 2.43-2.02 2.83-1.86.34 0 .69l.92.17q.51.1.41.6l-1.01 5.26a1.55 1.54-84.1 0 0 1.49 1.84q1.82.03 2.32-1.64.33-1.11-.49-.29l-.65.64q-1.17 1.18-.91-.46Zm-224.61-.25c-1 .47-3.94 1.61-3.87-.68q.02-.56.54-.76c2.22-.86 5.64-2.88 3.55-5.32a2.04 2.04 0 0 0-2.85-.26c-6.69 5.48-.16 12.71 3.06 7.5q.59-.96-.43-.48Zm17.83-5.06c.18 2.76-2.63 7.19 1.77 6.98a.45.45 0 0 0 .27-.8l-.61-.5q-.43-.35-.33-.89c.38-2.06 2.58-7.43-1.41-6.99q-1.78.19-.44 1.37.21.18.34.34.41.48.41.49Zm5.68-.33-1.18 6.44q-.12.7.59.7h.39q.56 0 .63-.56.43-3.46 1.94-6.57.4-.82.93-.07l.47.67q.33.46.76.1.77-.62.55-1.62-.1-.48-.53-.72-1.27-.73-2.21.41-.38.45-.83.08l-.64-.52q-.42-.35-.93-.13-.67.29-1.16.87-2.95 3.48.33.82.24-.19.53-.25.45-.1.36.35Zm7.21 6.41-1.43-1.22q-.34-.29-.58.08l-.23.35q-.28.42.05.8c1.89 2.16 4.8.83 5.25-1.84q.08-.49-.15-.93c-.65-1.21-3.42-3.03-1.71-4.41q.49-.39.8.15l.28.47q.33.54.87.23l.33-.19q.6-.35.16-.88-1.16-1.39-3.12-.7-.52.18-.8.65-1.68 2.83 1.11 4.91.52.39.55 1.04.03 1.12-1.17 1.53a.22.21-32.6 0 1-.21-.04Zm37.4-1.2.99-5.72q.08-.41-.29-.62c-5.22-3-8.65 3.01-6.84 7.66q.2.5.7.66 1.68.57 3.28-.24.45-.23.88.03 1 .6 1.99.05.82-.46-.01-.9l-.35-.19q-.44-.23-.35-.73Zm14.66-.21.7-5.09q.07-.55-.28-1c-1.25-1.58-2.6-.63-3.88.25q-.43.29-.79-.08-1.81-1.9-3.82-.06-.38.34-.65-.09c-.6-.93-1.88-1.11-2.43-.17q-.28.48.21.75l.35.18q.48.26.38.8l-1.16 6.14q-.1.51.43.51h.54q.6 0 .74-.59c.58-2.49.31-5.55 2.99-6.92a.75.75 0 0 1 1.08.79l-1.1 6.17q-.09.55.47.55h.58q.61 0 .68-.61c.23-2.02.76-6.72 3.45-6.87q.81-.04.66.75l-1.1 5.82q-.09.51.35.79 1.04.67 2.22 0 .58-.33.11-.81l-.48-.47q-.31-.31-.25-.74Zm5-.99c2.44-1.05 4.78-2.03 4.1-4.97q-.11-.49-.58-.68c-3.36-1.4-5.74 3.05-5.75 5.78 0 3.82 4.39 4.34 6.22 1.48q.1-.15-.08-.2-.14-.05-.28-.11-.32-.14-.59.09c-1.1.95-3.16 1.34-3.45-.66q-.08-.52.41-.73Zm11.89-3.71-.92 5.65a1.26 1.26 0 0 0 1.68 1.39l.78-.28q.78-.29.13-.82l-.45-.37q-.38-.31-.3-.78l.88-5.79q.1-.66-.52-.92-1.62-.69-2.38.73-1.24 2.28.31.55.31-.36.58-.06.28.3.21.7Zm11.15 4.95c.27-1.77 1.89-7.51-1.59-7.12q-.45.05-.84.29l-.86.51q-.45.26-.82-.1-.87-.87-2.06-.69-.63.1-.43.71 1.27 3.71-.52 7.41-.36.74.46.8l.93.07a.74.74 0 0 0 .79-.79q-.23-3.53 1.87-6.2.33-.42.86-.4c2.31.04.65 4.54.32 6.22a1.22 1.22 0 0 0 1.49 1.42l1.23-.3q1.27-.32.09-.89l-.56-.27q-.43-.2-.36-.67Zm24.64-.09.93-5.7q.08-.49-.37-.7c-8.73-4.08-9.56 11.99-2.92 8.09q.48-.28.91.07 1.01.82 2.11.17.46-.28.31-.8-.12-.4-.45-.44-.62-.07-.52-.69Zm7.37-5.59q.24.59.68 1.1.28.32.64.09c1.76-1.13-.79-3.77-3.14-2.07q-3.63 2.62-2.53 7.33.13.55.63.82 2.73 1.48 4.88-.69.18-.18.1-.43l-.1-.31q-.21-.69-.67-.13-1.14 1.43-2.72.51-.46-.27-.54-.8-.5-3.28 1.9-5.61.58-.55.87.19Zm5.51 5.68.73-5.93q.06-.48-.27-.84c-.79-.85-2.34-.26-2.66.89a.42.41 82.5 0 0 .61.47l.31-.18q.41-.25.3.22c-.42 1.87-2.33 10.88 3.44 6.75q.41-.3.75.08 1.15 1.27 2.62.02.79-.67-.24-.81l-.37-.05q-.75-.1-.55-.82c.22-.79 2.12-7.2.09-6.64q-.49.14-.6.63c-.5 2.2-.6 6.61-3.51 6.88q-.75.08-.65-.67Zm9.16-5.62-.78 6.2q-.08.65.48 1.01 1.98 1.27 3.83-.32.37-.32.66.07 1.13 1.5 2.68.17a.54.53 34.5 0 0-.17-.91l-.32-.11q-.61-.21-.51-.84l.97-5.74q.09-.55-.39-.83l-.24-.15q-.48-.28-.67.24c-.84 2.34-.85 6.39-3.34 7.55a.8.8 0 0 1-1.14-.77c.11-1.8 2.11-7.98-1.6-6.84a.63.62 78.4 0 0-.44.67q.1.95.81.49.2-.13.17.11Zm10.29.49-1.16 6.15q-.12.64.52.77l.57.11q.63.13.67-.52c.09-1.8.87-7.85 3.39-6.84q.52.21.44.77l-.89 5.79a.71.7-89 0 0 .77.81c2.21-.23.15-6.95 4.3-7.37q.74-.08.61.65l-.97 5.44a1.3 1.3 0 0 0 1.65 1.48l.86-.25q.94-.27.13-.81c-1.52-1.02-.02-4.85-.05-6.7q-.01-.58-.49-.91-1.99-1.38-3.58.53-.33.39-.65 0-1.7-2.09-3.96-.28-.41.33-.74-.08-.52-.66-1.42-.62-.44.03-.78.3-.36.29-.6.72-.3.52.27.33l.37-.12q.92-.31.74.65Zm15.15-1.81c-2.32 1.36-1.96 4.05.21 5.43q.46.29.46.84v.87q0 .62-.6.77-1.21.32-1.8-.94a.63.63 0 0 0-1.08-.09c-1.27 1.84 2.41 3.04 4.12 1.36 2.7-2.65-.13-3.86-1.33-5.99q-.31-.54.13-.98l.31-.31q.5-.5 1 0l.8.79q.34.35.67-.02c1.3-1.46-1.83-2.35-2.89-1.73Zm36.77 6.41.94-5.24q.08-.44-.32-.64c-8.13-4.24-10.34 11.38-3.08 8.15q.53-.23 1.02.07 1.16.7 2.2-.16.37-.31.06-.67l-.59-.68q-.31-.36-.23-.83Zm31.79-5.99c-8.28-4.01-10.15 11.89-2.68 8.22q.44-.21.84.08.93.69 1.88.03.52-.37-.03-.7c-1.28-.78.28-5.98.42-6.81q.09-.57-.43-.82Zm4.92 7.23-.31.3q-.5.51-1 0l-1.15-1.14q-.57-.58-.83.2l-.12.37q-.15.47.18.84c2.42 2.67 6.95-.63 4.31-3.98-.59-.75-2.74-2.51-.99-3.36q.59-.29.95.27.47.71 1.16.5a.74.74 0 0 0 .15-1.36q-2.56-1.42-4.22.81a2.4 2.4 0 0 0 .57 3.41q1.22.83 1.55 2.22.13.53-.25.92Z"/><rect width="3.48" height="88.32" x="83.75" y="14.76" fill="#95a0a8" rx=".31"/><path fill="#00489c" d="M63 37.06v43.15a1.65 1.65 0 0 1-.5 1.19L51.26 92.29a1.65 1.65 0 0 1-1.15.46H22.36a1.65 1.65 0 0 1-1.16-.48L9.99 81.22a1.65 1.65 0 0 1-.49-1.17V37.06a1.65 1.65 0 0 1 .48-1.16l10.67-10.67a1.65 1.65 0 0 1 1.16-.48h28.88a1.65 1.65 0 0 1 1.16.48L62.52 35.9a1.65 1.65 0 0 1 .48 1.16ZM25.06 62.23q-4.67 7.47-11.64 12.82-.49.38.13.43c5.69.44 13.4-9.73 16.19-14.02a.32.32 0 0 0-.24-.49c-11.19-1.27-9.39-16.88 1.53-14.54q.47.1.47.58v23.06q0 .4-.14.78l-.39 1.01q-.24.64.45.64h3.22q.39 0 .39-.39l.03-26.96q0-.37-.37-.38c-5.41-.08-11.02-.8-14.13 3-4.02 4.91-1.65 11.53 4.25 13.73q.58.22.25.73Zm22.73-.62q7.57-3.27 5.86-10.62c-1.71-7.35-9.74-6.32-15.29-6.22q-.65.01-.65.66l.06 24.8q0 .53-.25 1l-.26.49q-.42.78.46.78h3.2q.42 0 .42-.42l-.13-25.02q-.01-.6.58-.7c10.97-1.83 12.4 13.32 1.56 14.66a.4.4 0 0 0-.28.62c4.1 5.96 8.86 12.36 16.16 14.24a.36.35 70.7 0 0 .3-.63q-7.18-5.44-11.9-13.12-.22-.35.16-.52Z"/><path fill="#95a0a8" d="m108.62 92.53-2.06.28q-1.02.14-.32-.62c1-1.07 1.79-2.16 1.86-3.71.86-19.48.08-35.32.16-60.23q.01-1.48-2.11-2.76-.71-.42.11-.49l4.2-.32q.86-.07.86.79l-.23 66.48q0 .49-.44.72-.48.24-1.12-.02-.44-.18-.91-.12ZM162.25 99.77q.87.48-.13.48c-2.74-.01-5.37.41-8-.82-12.93-6.05-25.69-22.17-33.1-34.08q-.31-.49.27-.54c9.96-.94 16.77-4.5 18.48-15.31 1.45-9.15-1.67-18.11-10.97-21.04-3.38-1.06-7.91-.68-11.78-.86q-.56-.02-.59.53-.12 2.26-.11 4.37.16 27.12-.13 54.25-.03 2.91 2.03 5.43.31.38-.18.38l-4.06-.02q-.5 0-.51-.5l-.28-66.48q0-.55.54-.58c12.85-.69 24.76-1.14 31.33 9.4 8.01 12.86.32 27.35-13.72 31.81q-.49.15-.2.58c8.29 12.14 18.33 25.91 31.11 33Zm-25.22-69.58c9.01 9.96 6.95 19.89.61 30.5q-.97 1.61.39.32c7.59-7.24 9.77-19.36 2.81-27.83q-1.64-2-3.69-3.14-.51-.27-.12.15Zm-11.6 36.68c5.89 8.95 15.02 20.84 23.82 26.97a.26.26 0 0 0 .33-.4q-12.47-12.02-21.66-26.71-.3-.48-.86-.48h-1.29q-.75 0-.34.62ZM365.42 25.33l-.12 66.64q0 .52-.52.54l-4.28.23q-1 .05-.26-.62 2-1.83 2-3.18l.02-60.7q0-1.21-2-2.78-.9-.71.24-.71h4.33a.59.58 0 0 1 .59.58ZM385.24 66.84c7.94 11.5 18.47 26.39 31.68 33.25q.3.16-.04.16c-3.12 0-6.02.43-8.92-.96-12.99-6.23-25.38-21.94-32.93-33.95a.59.59 0 0 1 .54-.9c22.14 1.52 26.14-33.14 4.38-36.63q-2.39-.38-9.01.07-.49.03-.49.53-.08 29.43-.15 58.82c0 1.99.98 3.57 2.19 4.99q.4.46-.22.44l-4.25-.14q-.73-.03-.73-.76l-.02-66.19q0-.51.51-.54 13.13-.87 17.02.06c21.81 5.24 23.36 31.45 3.85 40.04-.78.34-2.33.31-3.26.94q-.47.31-.15.77Zm7.28-6.79q2.88-2.15 4.5-6.06 6.11-14.8-5.8-24.21-.36-.29-.77-.28-.57.01-.13.38c9.23 7.59 8.48 20.74 1.9 29.87q-.81 1.13.3.3Zm11.42 34.26q.03.4.56.47a.21.21 0 0 0 .17-.37q-13.19-12.37-22.74-27.84-.7-1.12-2.11-.22-.37.24-.14.61 9.99 15.61 24.26 27.35Z"/><path fill="#fff" d="M137.15 30.04q2.05 1.14 3.69 3.14c6.96 8.47 4.78 20.59-2.81 27.83q-1.36 1.29-.39-.32c6.34-10.61 8.4-20.54-.61-30.5q-.39-.42.12-.15Z"/><path fill="#95a0a8" d="M327.19 29.69q-.05-.18.11-.34.27-.28.41.08 10.95 26.97 22.14 53.84c.69 1.66 1.75 2.77 2.87 4.12q.35.42-.2.45l-2.59.18q-.65.04-.91-.56-16.01-38.49-22.59-54.89-.63-1.57.76-2.88Z"/><path fill="#fff" d="M392.22 59.75c6.58-9.13 7.33-22.28-1.9-29.87q-.44-.37.13-.38.41-.01.77.28 11.91 9.41 5.8 24.21-1.62 3.91-4.5 6.06-1.11.83-.3-.3Z"/><path fill="#95a0a8" d="M236.95 85.75q-6.91 1.74-12.2 2.19c-18.36 1.59-35-10.1-34.09-29.7.96-20.73 21.62-31.41 40.35-26.75q5.18 1.28 9.18 1.67.55.05.64.61l.68 4.47q.14.92-.57.32c-12.19-10.22-30.1-6.42-38.82 4.92-12.18 15.84-2.51 37.39 15.79 41.64q12.24 2.84 22.47-4.51.76-.54.68.38l-.36 4.33q-.04.48-.52.46l-2.3-.12q-.47-.02-.93.09Zm-28.89-2.81c-17.97-10.85-17.4-33.97-1.47-46.57q.66-.52-.16-.32-1.11.27-3.05 1.88c-15.37 12.76-14.19 37.79 5.41 45.73a.19.19 0 0 0 .21-.3q-.41-.44-.94-.42ZM261.74 40.88c-12.72 13.35-9.08 33.58 7.29 41.93q13.93 7.1 28.84-2.04.49-.3.45.28l-.33 4.38q-.04.54-.57.44c-4.08-.71-10.96 1.63-13.99 2-16.77 2.05-32.38-6.89-35.29-24.04q-1.26-7.42 1.41-14.31C256.72 31 277.25 27.41 294.2 33q.46.15.93.08l2.01-.27q.67-.09.8.58l1.02 5.08q.18.91-.52.3c-10.73-9.43-27.76-7.26-36.7 2.11Zm3.23-5.45c-9.96 4.37-15.37 15.54-14.64 26.02q1.1 15.8 15.36 22.1c.18.08.25-.05.29-.23q.02-.11-.08-.17c-18.98-10.44-17.96-35.6-.8-47.49q1.12-.78-.13-.23ZM167.9 87.45l-1.72.28q-1.25.2-.37-.71 1.91-1.96 1.92-3.83.05-23.6 0-47.19 0-2.85-1.91-4.46-.64-.54.2-.54h3.35q.63 0 .63.63v55.61a.47.46-11.4 0 1-.29.43q-.55.23-1.01-.06-.37-.23-.8-.16ZM175.38 87.23q-1.29.77-2.93.37-.45-.11-.45-.58l-.06-55.37q0-.65.66-.65h2.88q1 0 .25.67-1.71 1.53-1.71 3.08-.06 22.37.02 44.74.01 4.59 1.51 7.06.27.43-.17.68ZM314.2 63.79q-4.66-.34-9.08.94c-1.08.31-2.17.03-2.89-.69q-.5-.51.18-.72 6.25-1.98 12.81-1.96.5 0 .7-.46 4.42-10.27 8.8-20.4.71-1.63-1.36-3.7-.39-.39-.11-.87l.96-1.65a.54.53 48.8 0 1 .96.07l21.7 52.71a.72.72 0 0 1-.75.99l-2.61-.3q-.72-.09-.39-.74.69-1.31.35-2.19-6.21-16.35-24.29-20.98a1.97 1.97 0 0 0-2.31 1.13l-8.67 20.41q-.21.49.17.86l.55.55q.95.96-.4.96h-4.64q-1.35 0-.25-.79l1.07-.78q.47-.33.7-.86l9.09-21.06q.19-.43-.29-.47Zm4.49-3.04q-.39.92.59 1.08 10 1.63 17.52 8.44.64.58.32-.22l-10.61-26.77a.26.26 0 0 0-.48-.01l-7.34 17.48Z"/><path fill="#fff" d="M250.33 61.45c-.73-10.48 4.68-21.65 14.64-26.02q1.25-.55.13.23c-17.16 11.89-18.18 37.05.8 47.49q.1.06.08.17c-.04.18-.11.31-.29.23q-14.26-6.3-15.36-22.1ZM208.06 82.94q.53-.02.94.42a.19.19 0 0 1-.21.3c-19.6-7.94-20.78-32.97-5.41-45.73q1.94-1.61 3.05-1.88.82-.2.16.32c-15.93 12.6-16.5 35.72 1.47 46.57ZM318.69 60.75l7.34-17.48a.26.26 0 0 1 .48.01l10.61 26.77q.32.8-.32.22-7.52-6.81-17.52-8.44-.98-.16-.59-1.08ZM24.81 61.5c-5.9-2.2-8.27-8.82-4.25-13.73 3.11-3.8 8.72-3.08 14.13-3q.37.01.37.38l-.03 26.96q0 .39-.39.39h-3.22q-.69 0-.45-.64l.39-1.01q.14-.38.14-.78V47.01q0-.48-.47-.58C20.11 44.09 18.31 59.7 29.5 60.97a.32.32 0 0 1 .24.49c-2.79 4.29-10.5 14.46-16.19 14.02q-.62-.05-.13-.43 6.97-5.35 11.64-12.82.33-.51-.25-.73ZM47.63 62.13q4.72 7.68 11.9 13.12a.36.35 70.7 0 1-.3.63C51.93 74 47.17 67.6 43.07 61.64a.4.4 0 0 1 .28-.62c10.84-1.34 9.41-16.49-1.56-14.66q-.59.1-.58.7l.13 25.02q0 .42-.42.42h-3.2q-.88 0-.46-.78l.26-.49q.25-.47.25-1l-.06-24.8q0-.65.65-.66c5.55-.1 13.58-1.13 15.29 6.22q1.71 7.35-5.86 10.62-.38.17-.16.52ZM403.94 94.31q-14.27-11.74-24.26-27.35-.23-.37.14-.61 1.41-.9 2.11.22 9.55 15.47 22.74 27.84a.21.21 0 0 1-.17.37q-.53-.07-.56-.47ZM149.25 93.84c-8.8-6.13-17.93-18.02-23.82-26.97q-.41-.62.34-.62h1.29q.56 0 .86.48 9.19 14.69 21.66 26.71a.26.26 0 0 1-.33.4Z"/><path fill="#95a0a8" d="M422.62 88.42a4.48 4.48 0 0 1-4.48 4.48 4.48 4.48 0 0 1-4.48-4.48 4.48 4.48 0 0 1 4.48-4.48 4.48 4.48 0 0 1 4.48 4.48Zm-2.37 2.83q3.07-2.8.67-5.4c-3.89-4.2-9.53 2.79-4.64 5.8q1.88 1.16 3.97-.4Z"/><path fill="#fff" d="M420.25 91.25q-1.44-2.08-.16-4.36.36-.63-.37-.69l-2.92-.23q-.52-.05-.51.48l.04 3.87q.02 2.38.58.07.15-.62.26-1.33.14-.88.75-.24l2.33 2.43q-2.09 1.56-3.97.4c-4.89-3.01.75-10 4.64-5.8q2.4 2.6-.67 5.4Z"/><path fill="#95a0a8" d="m420.25 91.25-2.33-2.43q-.61-.64-.75.24-.11.71-.26 1.33-.56 2.31-.58-.07l-.04-3.87q-.01-.53.51-.48l2.92.23q.73.06.37.69-1.28 2.28.16 4.36Zm-2.19-2.94q.75-.03 1.06-.56.3-.51-.13-.91-.74-.71-1.63-.13a.88.87-21.4 0 0-.38.85c.06.35.69 1.37 1.08.75Z"/><path fill="#fff" d="M418.06 88.31c-.39.62-1.02-.4-1.08-.75a.88.87-21.4 0 1 .38-.85q.89-.58 1.63.13.43.4.13.91-.31.53-1.06.56Z"/><path fill="#00489c" d="m126.01 127.2.69 1.03a.79.79 0 0 1-.7 1.22c-3.38-.19-1.72-4.71-1.29-6.75q.13-.58-.38-.89l-.44-.26q-.65-.39-1.13.21-2.3 2.86-2.13 6.64.03.54-.51.57l-.77.04q-.71.03-.59-.66l2.21-12.6a.77.76 4 0 0-.78-.89l-4.78.2q-.52.02-.61.54l-1.87 10.52q-.1.56.04 1.13.22.91.96 1.06 3.43.71-.18.7l-4.38-.02q-1.54-.01-.17-.71l.97-.49q.59-.31.71-.97l2.01-11.1q.08-.47-.37-.61-2.68-.86-3.83 1.41-.94 1.84-.72-.21.14-1.27.9-2.24.25-.32.67-.32h7.8q.53 0 .91-.38l1.37-1.36q.81-.82.66.32l-.16 1.12q-.08.61.53.55.33-.03.55-.3.35-.4.87-.46c1.74-.18.02 5.9-.08 6.98q-.06.6.5.37c5.39-2.14 3.62 3.2 3.34 5.85q-.04.41.18.76ZM339.16 113.93l1.77-.7q.7-.28.57.46l-1.18 6.65q-.11.65.48.35l1.16-.59q.41-.22.87-.14c3.16.52 1.65 5.02 1.22 7.15q-.11.54.36.82l.36.21q.63.38-.01.75-1.33.77-2.26-.24-.33-.36-.25-.84l.92-5.43q.13-.81-.69-.85c-2.69-.12-3.36 5.01-3.53 6.88q-.06.65-.71.6l-.49-.04q-.64-.04-.53-.68l2.13-12.48a.79.79 0 0 0-.81-.93l-4.62.17q-.6.03-.7.62l-2 11.31q-.1.56.41.83l.75.39q1.56.81-.2.8l-4.62-.01q-2.07-.01.02-.75c2.5-.87 3.02-8.36 3.69-12.61q.1-.63-.54-.63h-2.22q-.66 0-.82.64-.2.75-.92.95-.69.19-.42-.47l.71-1.79q.23-.57.84-.57c2.89-.02 8.45.96 10.19-1.75q.83-1.28.68.24-.05.56-.23 1.09-.33.96.62.59ZM190.06 123.96a.35.34 35.4 0 0 .66-.11c.2-2.56.69-9.42 3.42-10.48a1.5 1.49 56.6 0 1 1.59.33q.94.92.3 1.91-.34.54-.76.06l-.53-.61q-.34-.4-.79-.12c-1.16.74-2.74 11.86-3.07 13.67a.58.58 0 0 1-1.11.12l-4.32-10.42a.41.41 0 0 0-.78.1q-.65 4.1-1.58 8.1c-1 4.33-5.1 2.21-4.27 1.12q.28-.37.72-.24l1.36.4q.7.21.84-.51l2.17-11.13q.1-.52-.28-.89l-.38-.38q-.95-.95.39-1.11.73-.09 1.49-.02.5.05.7.51l4.23 9.7ZM145.06 127.94q.41.07.66.42.47.65-.33.65l-4.34-.02q-.97-.01-.16-.55c2.6-1.76 3.18-9.81 3.61-12.72q.07-.49-.38-.71-.5-.26-.84-.69-.46-.57.27-.57h8.15q.73 0 .59.71l-.42 2.13q-.17.84-.63.12-.31-.48-.25-.99.06-.42-.34-.58-1.92-.73-3.74-.07-.5.18-.58.71l-.52 3.64q-.09.64.54.79 1.13.28 2.49-1.52 1.28-1.69.64.31-.64 1.98-.61 4.08.02 1.01-.59.21-.27-.34-.29-.76-.03-.53-.5-.79c-2.89-1.54-2.75 3.75-3.05 5.3a.77.76 10.7 0 0 .62.9ZM254.51 115.56l-1.5-1.38a.25.25 0 0 1 .17-.43h5.56a.25.25 0 0 1 .07.49l-2.17.65a.25.25 0 0 0-.18.27l1.41 9.46a.25.25 0 0 0 .47.07l4.71-9.55a.25.25 0 0 0-.13-.34l-1.41-.57a.25.25 0 0 1 .09-.48h4.29a.25.25 0 0 1 .12.47l-1.46.77a.25.25 0 0 0-.11.11l-7.39 14.85a.25.25 0 0 1-.47-.08l-1.99-14.16a.25.25 0 0 0-.08-.15ZM370.44 116.44q.21-1.1-.94-1.93-1.06-.76.25-.76h4.24q1.16 0 .18.62l-1.21.76q-.46.29-.55.82l-1.91 10.85a.81.81 0 0 0 .8.95h3.65q.52 0 .72-.48l.46-1.07q.43-.98.74.04.37 1.18-.18 2.31-.22.45-.72.45H367q-1.3 0-.17-.65c2.61-1.5 3.04-9 3.61-11.91ZM400.32 115.04q.61-1.18 2.01-1a.51.5 10.9 0 1 .43.63q-.41 1.61-2.2.98a.43.43 0 0 1-.24-.61ZM405.93 115.42q.01-.87.41-1.66.44-.89.57.09.26 1.9-.42 3.75a1.09 1.09 0 0 1-2.03.04q-.66-1.6-.4-3.35.32-2.15.76-.02l.32 1.56q.72 3.53.79-.41ZM154.45 117.39a.58.55 31.3 0 1-.54.12l-.37-.12q-.55-.17-.42-.74.21-.93.88-1.13.42-.11.69.22.67.82-.24 1.65ZM236.62 115.99a.63.62 46.9 0 1-.03 1.04l-.75.46a.81.81 0 0 1-1.2-.91q.48-1.68 1.98-.59Z"/><path fill="#00489c" d="m401.3 117.07.95-.94q.46-.46.81.08c1.02 1.6-1.37 2.27-2.34 1.44q-.26-.22.06-.33l.26-.08q.15-.06.26-.17ZM396.67 127.72q.75.18 1.32-.23 1.54-1.12.48.48-.96 1.45-2.77 1.2a1.3 1.3 0 0 1-1.12-1.47l.74-5.38q.05-.37-.27-.54l-.88-.45q-1.13-.59.12-.88l1.31-.29q.55-.13.44-.68-.4-1.84.95-3.05.72-.65.89.31.25 1.5-.36 2.94-.17.41.26.55l1.01.31q.75.24.24.83-.46.53-1.21.38-.59-.11-.7.48l-.89 4.83q-.09.54.44.66ZM170.64 122.05q-.27-.69-.63-.79-.43-.13-.23-.26 1.93-1.26 1.97-3.64.01-.56.52-.78.65-.28.91.06.24.32.18.71l-.42 2.64q-.15.92.71.56.64-.26 1.07.15.56.53-.16.8-.61.23-1.25.09-.64-.15-.75.5l-.94 5.35a.52.52 0 0 0 .8.52l.9-.6q1.11-.75.53.46-.6 1.22-2.05 1.41a1.65 1.64 1.3 0 1-1.83-1.91l.76-4.35q.08-.47-.09-.92ZM359.66 127.96l.65-.64q.82-.82.49.29-.5 1.67-2.32 1.64a1.55 1.54-84.1 0 1-1.49-1.84l1.01-5.26q.1-.5-.41-.6l-.92-.17q-1.86-.35 0-.69 2.26-.4 2.02-2.83-.05-.54.29-.97.45-.59 1.14-.34.63.22.44.85l-.66 2.25q-.23.78.58.82l1.51.08q1.04.06.16.61-.81.52-1.71.31-.71-.16-.83.56l-.86 5.47q-.26 1.64.91.46ZM130.27 126.57c-.07 2.29 2.87 1.15 3.87.68q1.02-.48.43.48c-3.22 5.21-9.75-2.02-3.06-7.5a2.04 2.04 0 0 1 2.85.26c2.09 2.44-1.33 4.46-3.55 5.32q-.52.2-.54.76Zm.26-2.52a.4.4 0 0 0 .52.46q1.9-.61 2.5-2.55a.62.62 0 0 0-.87-.74q-1.77.89-2.15 2.83ZM151.56 121.7q-.13-.16-.34-.34-1.34-1.18.44-1.37c3.99-.44 1.79 4.93 1.41 6.99q-.1.54.33.89l.61.5a.45.45 0 0 1-.27.8c-4.4.21-1.59-4.22-1.77-6.98q0-.01-.41-.49Z"/><path fill="#00489c" d="M157.29 121.51q-.29.06-.53.25-3.28 2.66-.33-.82.49-.58 1.16-.87.51-.22.93.13l.64.52q.45.37.83-.08.94-1.14 2.21-.41.43.24.53.72.22 1-.55 1.62-.43.36-.76-.1l-.47-.67q-.53-.75-.93.07-1.51 3.11-1.94 6.57-.07.56-.63.56h-.39q-.71 0-.59-.7l1.18-6.44q.09-.45-.36-.35ZM164.86 128.27a.22.21-32.6 0 0 .21.04q1.2-.41 1.17-1.53-.03-.65-.55-1.04-2.79-2.08-1.11-4.91.28-.47.8-.65 1.96-.69 3.12.7.44.53-.16.88l-.33.19q-.54.31-.87-.23l-.28-.47q-.31-.54-.8-.15c-1.71 1.38 1.06 3.2 1.71 4.41q.23.44.15.93c-.45 2.67-3.36 4-5.25 1.84q-.33-.38-.05-.8l.23-.35q.24-.37.58-.08l1.43 1.22ZM202.61 127.8l.35.19q.83.44.01.9-.99.55-1.99-.05-.43-.26-.88-.03-1.6.81-3.28.24-.5-.16-.7-.66c-1.81-4.65 1.62-10.66 6.84-7.66q.37.21.29.62l-.99 5.72q-.09.5.35.73Zm-1.67-6.61c-3.31-.72-5.22 6.56-1.98 6.86q.61.06.93-.47 1.61-2.67 1.45-5.91a.52.5 6 0 0-.4-.48ZM217.17 127.6l.48.47q.47.48-.11.81-1.18.67-2.22 0-.44-.28-.35-.79l1.1-5.82q.15-.79-.66-.75c-2.69.15-3.22 4.85-3.45 6.87q-.07.61-.68.61h-.58q-.56 0-.47-.55l1.1-6.17a.75.75 0 0 0-1.08-.79c-2.68 1.37-2.41 4.43-2.99 6.92q-.14.59-.74.59h-.54q-.53 0-.43-.51l1.16-6.14q.1-.54-.38-.8l-.35-.18q-.49-.27-.21-.75c.55-.94 1.83-.76 2.43.17q.27.43.65.09 2.01-1.84 3.82.06.36.37.79.08c1.28-.88 2.63-1.83 3.88-.25q.35.45.28 1l-.7 5.09q-.06.43.25.74ZM221.51 126.6c.29 2 2.35 1.61 3.45.66q.27-.23.59-.09.14.06.28.11.18.05.08.2c-1.83 2.86-6.22 2.34-6.22-1.48.01-2.73 2.39-7.18 5.75-5.78q.47.19.58.68c.68 2.94-1.66 3.92-4.1 4.97q-.49.21-.41.73Zm.29-2.72q-.19 1.06.78.58 1.42-.69 2.18-2.14a.78.78 0 0 0-1.02-1.07q-1.61.73-1.94 2.63ZM233.6 121.46q-.27-.3-.58.06-1.55 1.73-.31-.55.76-1.42 2.38-.73.62.26.52.92l-.88 5.79q-.08.47.3.78l.45.37q.65.53-.13.82l-.78.28a1.26 1.26 0 0 1-1.68-1.39l.92-5.65q.07-.4-.21-.7ZM245.32 127.78l.56.27q1.18.57-.09.89l-1.23.3a1.22 1.22 0 0 1-1.49-1.42c.33-1.68 1.99-6.18-.32-6.22q-.53-.02-.86.4-2.1 2.67-1.87 6.2a.74.74 0 0 1-.79.79l-.93-.07q-.82-.06-.46-.8 1.79-3.7.52-7.41-.2-.61.43-.71 1.19-.18 2.06.69.37.36.82.1l.86-.51q.39-.24.84-.29c3.48-.39 1.86 5.35 1.59 7.12q-.07.47.36.67ZM270.12 127.71q.33.04.45.44.15.52-.31.8-1.1.65-2.11-.17-.43-.35-.91-.07c-6.64 3.9-5.81-12.17 2.92-8.09q.45.21.37.7l-.93 5.7q-.1.62.52.69Zm-2.99-6.6c-2.02.85-4.06 6.31-1.11 6.95a1.48 1.47-77.9 0 0 1.75-1.14l.94-4.5q.45-2.15-1.58-1.31ZM276.1 121.24q-2.4 2.33-1.9 5.61.08.53.54.8 1.58.92 2.72-.51.46-.56.67.13l.1.31q.08.25-.1.43-2.15 2.17-4.88.69-.5-.27-.63-.82-1.1-4.71 2.53-7.33c2.35-1.7 4.9.94 3.14 2.07q-.36.23-.64-.09-.44-.51-.68-1.1-.29-.74-.87-.19ZM283.13 127.78c2.91-.27 3.01-4.68 3.51-6.88q.11-.49.6-.63c2.03-.56.13 5.85-.09 6.64q-.2.72.55.82l.37.05q1.03.14.24.81-1.47 1.25-2.62-.02-.34-.38-.75-.08c-5.77 4.13-3.86-4.88-3.44-6.75q.11-.47-.3-.22l-.31.18a.42.41 82.5 0 1-.61-.47c.32-1.15 1.87-1.74 2.66-.89q.33.36.27.84l-.73 5.93q-.1.75.65.67ZM291.47 121.38q-.71.46-.81-.49a.63.62 78.4 0 1 .44-.67c3.71-1.14 1.71 5.04 1.6 6.84a.8.8 0 0 0 1.14.77c2.49-1.16 2.5-5.21 3.34-7.55q.19-.52.67-.24l.24.15q.48.28.39.83l-.97 5.74q-.1.63.51.84l.32.11a.54.53 34.5 0 1 .17.91q-1.55 1.33-2.68-.17-.29-.39-.66-.07-1.85 1.59-3.83.32-.56-.36-.48-1.01l.78-6.2q.03-.24-.17-.11ZM301.19 121.33l-.37.12q-.57.19-.27-.33.24-.43.6-.72.34-.27.78-.3.9-.04 1.42.62.33.41.74.08 2.26-1.81 3.96.28.32.39.65 0 1.59-1.91 3.58-.53.48.33.49.91c.03 1.85-1.47 5.68.05 6.7q.81.54-.13.81l-.86.25a1.3 1.3 0 0 1-1.65-1.48l.97-5.44q.13-.73-.61-.65c-4.15.42-2.09 7.14-4.3 7.37a.71.7-89 0 1-.77-.81l.89-5.79q.08-.56-.44-.77c-2.52-1.01-3.3 5.04-3.39 6.84q-.04.65-.67.52l-.57-.11q-.64-.13-.52-.77l1.16-6.15q.18-.96-.74-.65ZM317.08 120.17c1.06-.62 4.19.27 2.89 1.73q-.33.37-.67.02l-.8-.79q-.5-.5-1 0l-.31.31q-.44.44-.13.98c1.2 2.13 4.03 3.34 1.33 5.99-1.71 1.68-5.39.48-4.12-1.36a.63.63 0 0 1 1.08.09q.59 1.26 1.8.94.6-.15.6-.77v-.87q0-.55-.46-.84c-2.17-1.38-2.53-4.07-.21-5.43ZM354.08 127.41l.59.68q.31.36-.06.67-1.04.86-2.2.16-.49-.3-1.02-.07c-7.26 3.23-5.05-12.39 3.08-8.15q.4.2.32.64l-.94 5.24q-.08.47.23.83Zm-1.65-6.28c-2.89-.79-3.86 4.12-3.52 5.89q.1.52.56.78c2.56 1.46 3.37-4.01 3.49-5.94q.03-.58-.53-.73ZM382.96 128.81c-7.47 3.67-5.6-12.23 2.68-8.22q.52.25.43.82c-.14.83-1.7 6.03-.42 6.81q.55.33.03.7-.95.66-1.88-.03-.4-.29-.84-.08Zm-1.944-.78a3.67 1.83 107.5 0 0 2.85-2.95 3.67 1.83 107.5 0 0-.642-4.05 3.67 1.83 107.5 0 0-2.85 2.95 3.67 1.83 107.5 0 0 .642 4.05ZM390.81 126.9q-.33-1.39-1.55-2.22a2.4 2.4 0 0 1-.57-3.41q1.66-2.23 4.22-.81a.74.74 0 0 1-.15 1.36q-.69.21-1.16-.5-.36-.56-.95-.27c-1.75.85.4 2.61.99 3.36 2.64 3.35-1.89 6.65-4.31 3.98q-.33-.37-.18-.84l.12-.37q.26-.78.83-.2l1.15 1.14q.5.51 1 0l.31-.3q.38-.39.25-.92Z"/><path fill="#fff" d="M200.94 121.19a.52.5 6 0 1 .4.48q.16 3.24-1.45 5.91-.32.53-.93.47c-3.24-.3-1.33-7.58 1.98-6.86ZM266.02 128.06c-2.95-.64-.91-6.1 1.11-6.95q2.03-.84 1.58 1.31l-.94 4.5a1.48 1.47-77.9 0 1-1.75 1.14ZM348.91 127.02c-.34-1.77.63-6.68 3.52-5.89q.56.15.53.73c-.12 1.93-.93 7.4-3.49 5.94q-.46-.26-.56-.78Z"/><ellipse fill="#fff" rx="3.67" ry="1.83" transform="rotate(107.5 145.405 202.356)"/><path fill="#fff" d="M130.53 124.05q.38-1.94 2.15-2.83a.62.62 0 0 1 .87.74q-.6 1.94-2.5 2.55a.4.4 0 0 1-.52-.46ZM221.8 123.88q.33-1.9 1.94-2.63a.78.78 0 0 1 1.02 1.07q-.76 1.45-2.18 2.14-.97.48-.78-.58Z"/></svg>