<svg width="243" height="44" viewBox="0 0 243 44" fill="none" xmlns="http://www.w3.org/2000/svg">
<path d="M132.522 9.62939H128.029V14.2795H132.522C132.765 14.2795 133.008 14.1651 133.252 13.9504C133.481 13.7215 133.667 13.4067 133.824 13.0204C133.981 12.6341 134.053 12.2049 134.053 11.7327C134.053 11.1317 133.895 10.631 133.566 10.2303C133.237 9.82971 132.894 9.62939 132.522 9.62939Z" fill="black"/>
<path d="M118.371 10.1874C117.727 9.74386 116.983 9.52924 116.125 9.52924C115.281 9.52924 114.537 9.74386 113.893 10.1874C113.249 10.631 112.748 11.2176 112.376 11.9616C112.018 12.6913 111.847 13.5355 111.847 14.4655C111.847 15.3813 112.018 16.2111 112.376 16.9552C112.734 17.6992 113.249 18.2858 113.893 18.7294C114.537 19.1729 115.281 19.3875 116.125 19.3875C116.969 19.3875 117.727 19.1729 118.371 18.7294C119.015 18.2858 119.516 17.6992 119.888 16.9552C120.26 16.2111 120.446 15.3813 120.446 14.4655C120.446 13.5498 120.26 12.7056 119.888 11.9759C119.516 11.2176 119.001 10.631 118.371 10.1874Z" fill="black"/>
<path d="M28.6163 10.1874C27.9724 9.74386 27.2284 9.52924 26.3699 9.52924C25.5257 9.52924 24.7817 9.74386 24.1378 10.1874C23.494 10.631 22.9932 11.2176 22.6212 11.9616C22.2635 12.6913 22.0775 13.5355 22.0775 14.4655C22.0775 15.3813 22.2635 16.2111 22.6212 16.9552C22.9789 17.6992 23.494 18.2858 24.1378 18.7294C24.7817 19.1729 25.5257 19.3875 26.3699 19.3875C27.2141 19.3875 27.9724 19.1729 28.6163 18.7294C29.2601 18.2858 29.7609 17.6992 30.1329 16.9552C30.5049 16.2111 30.6909 15.3813 30.6909 14.4655C30.6909 13.5498 30.5049 12.7056 30.1329 11.9759C29.7609 11.2176 29.2601 10.631 28.6163 10.1874Z" fill="black"/>
<path d="M42.7813 9.62939H38.2886V14.2795H42.7813C43.0246 14.2795 43.2678 14.1651 43.4967 13.9504C43.7257 13.7215 43.926 13.4067 44.0691 13.0204C44.2265 12.6341 44.298 12.2049 44.298 11.7327C44.298 11.1317 44.1406 10.631 43.8115 10.2303C43.4967 9.82971 43.1533 9.62939 42.7813 9.62939Z" fill="black"/>
<path d="M0 0V28.9167H153.998V0H0ZM17.0553 20.3891C17.0553 20.7468 16.9408 21.0473 16.6976 21.2762C16.4543 21.5194 16.1539 21.6339 15.7962 21.6339C15.6245 21.6339 15.4385 21.6053 15.2668 21.548C15.0808 21.4908 14.9377 21.405 14.8375 21.2905L7.31145 11.7327V20.5035C7.31145 20.8326 7.2113 21.1045 6.99668 21.3191C6.78206 21.548 6.49589 21.6482 6.15249 21.6482C5.82341 21.6482 5.55156 21.5337 5.35124 21.3191C5.13662 21.1045 5.03646 20.8326 5.03646 20.5035V8.54195C5.03646 8.18425 5.15093 7.88378 5.39417 7.65485C5.6374 7.41161 5.93788 7.29714 6.28127 7.29714C6.48158 7.29714 6.6819 7.34007 6.88221 7.41161C7.09683 7.49745 7.23991 7.61192 7.34007 7.755L14.8089 17.2985V8.4561C14.8089 8.12701 14.9091 7.85516 15.1094 7.64054C15.324 7.41161 15.5959 7.31145 15.9393 7.31145C16.2683 7.31145 16.5259 7.42592 16.7405 7.64054C16.9408 7.85516 17.041 8.12701 17.041 8.4561V20.3891H17.0553ZM32.8372 17.3271C32.4938 18.2142 32.0216 19.0012 31.392 19.6737C30.7768 20.3605 30.0328 20.8755 29.1743 21.2619C28.3158 21.6482 27.3858 21.8342 26.3699 21.8342C25.354 21.8342 24.424 21.6482 23.5798 21.2619C22.7356 20.8899 21.9916 20.3605 21.362 19.6737C20.7468 18.9869 20.2603 18.2142 19.9169 17.3271C19.5735 16.44 19.4018 15.4814 19.4018 14.4655C19.4018 13.4353 19.5735 12.4767 19.9169 11.5896C20.2603 10.7025 20.7468 9.91553 21.362 9.24304C21.9916 8.57056 22.7213 8.04117 23.5798 7.65485C24.424 7.26853 25.354 7.08252 26.3699 7.08252C27.3858 7.08252 28.3158 7.26853 29.1743 7.65485C30.0328 8.04117 30.7625 8.57056 31.392 9.24304C32.0216 9.92983 32.4938 10.7025 32.8372 11.5896C33.1805 12.4767 33.3522 13.4353 33.3522 14.4655C33.3522 15.4814 33.1805 16.44 32.8372 17.3271ZM47.317 21.2905C47.1739 21.4765 46.9736 21.591 46.7447 21.6339C46.5157 21.6768 46.2868 21.6768 46.0435 21.6339C45.8146 21.591 45.6286 21.5194 45.4712 21.4479C45.2423 21.3048 45.0134 21.1045 44.7701 20.8469C44.5412 20.5751 44.3552 20.2174 44.1978 19.7595C44.0547 19.3017 43.9832 18.7293 43.9832 18.0139C43.9832 17.785 43.9403 17.5704 43.8687 17.3701C43.7829 17.1698 43.6684 16.998 43.511 16.855C43.3679 16.7119 43.1676 16.6117 42.9387 16.5259C42.7098 16.4543 42.4379 16.4114 42.1231 16.4114H38.2886V20.3891C38.2886 20.7468 38.1884 21.0473 38.0024 21.2762C37.8021 21.5194 37.5445 21.6339 37.2011 21.6339C36.8148 21.6339 36.4714 21.5194 36.1853 21.2762C35.8848 21.0473 35.7274 20.7468 35.7274 20.3891V8.52764C35.7274 8.16994 35.8419 7.86947 36.0851 7.64054C36.314 7.3973 36.6145 7.28284 36.9722 7.28284H42.8815C43.5969 7.28284 44.2693 7.46884 44.8846 7.85516C45.4998 8.22717 46.0006 8.75657 46.3869 9.41474C46.7733 10.0729 46.9593 10.8312 46.9593 11.704C46.9593 12.2191 46.8448 12.7342 46.6302 13.235C46.4156 13.7215 46.1294 14.165 45.7717 14.5657C45.5285 14.8375 45.2566 15.0665 44.9561 15.2525C45.1708 15.3955 45.3568 15.5672 45.5285 15.7389C45.7717 16.0108 45.972 16.3113 46.1294 16.6403C46.2725 16.9694 46.3583 17.3128 46.3869 17.6848C46.4442 18.0282 46.4728 18.3287 46.5014 18.5863C46.5157 18.8438 46.5586 19.0727 46.6159 19.2444C46.6731 19.4304 46.8019 19.5592 46.9736 19.6594C47.274 19.8311 47.4601 20.0886 47.5459 20.432C47.6318 20.7325 47.5459 21.0329 47.317 21.2905ZM59.8509 9.31458C59.622 9.52921 59.3215 9.64368 58.9638 9.64368H55.7445V20.4034C55.7445 20.7611 55.6157 21.0616 55.3581 21.2905C55.1149 21.5337 54.7858 21.6482 54.3852 21.6482C53.9989 21.6482 53.6841 21.5337 53.4409 21.2905C53.1976 21.0616 53.0831 20.7611 53.0831 20.4034V9.64368H49.8495C49.5061 9.64368 49.2056 9.52921 48.9624 9.31458C48.7192 9.09996 48.6047 8.8138 48.6047 8.4561C48.6047 8.09839 48.7192 7.81224 48.9624 7.61192C49.2056 7.3973 49.5061 7.28284 49.8495 7.28284H58.9638C59.3215 7.28284 59.622 7.3973 59.8509 7.61192C60.0941 7.82655 60.2086 8.11271 60.2086 8.47041C60.2086 8.81381 60.0941 9.09996 59.8509 9.31458ZM74.0446 20.3891C74.0446 20.7468 73.9301 21.0473 73.6869 21.2762C73.4579 21.5194 73.1288 21.6339 72.7425 21.6339C72.4134 21.6339 72.113 21.5194 71.8697 21.2762C71.6265 21.0473 71.4977 20.7468 71.4977 20.3891V15.5959H64.9446V20.3891C64.9446 20.7468 64.8158 21.0473 64.5583 21.2762C64.3007 21.5194 63.9859 21.6339 63.6425 21.6339C63.2562 21.6339 62.9558 21.5194 62.7268 21.2762C62.4979 21.0473 62.3691 20.7468 62.3691 20.3891V8.52764C62.3691 8.16994 62.4979 7.86947 62.7411 7.64054C62.9844 7.3973 63.2992 7.28284 63.6855 7.28284C64.0146 7.28284 64.315 7.3973 64.5583 7.64054C64.8015 7.86947 64.9303 8.16994 64.9303 8.52764V13.2493H71.4834V8.52764C71.4834 8.16994 71.6122 7.86947 71.8697 7.64054C72.1273 7.3973 72.442 7.28284 72.7854 7.28284C73.1718 7.28284 73.4722 7.3973 73.7012 7.64054C73.9301 7.86947 74.0589 8.16994 74.0589 8.52764V20.3891H74.0446ZM92.0299 19.8597C91.5434 20.5035 90.8852 21.0043 90.084 21.3477C89.2827 21.6911 88.4242 21.8485 87.4942 21.8485C86.5355 21.8485 85.6771 21.734 84.9044 21.4908C84.1318 21.2476 83.4021 20.8326 82.701 20.2317C82.5293 20.0743 82.3862 19.9026 82.3003 19.7166C82.2002 19.5163 82.1573 19.3303 82.1573 19.1443C82.1573 18.8295 82.2717 18.5576 82.4864 18.3144C82.7153 18.0712 83.0014 17.9567 83.3305 17.9567C83.5881 17.9567 83.8313 18.0425 84.0316 18.2142C84.5467 18.6435 85.0618 18.9583 85.5769 19.1729C86.092 19.4018 86.7216 19.502 87.4799 19.502C87.9807 19.502 88.4528 19.4161 88.8678 19.2587C89.297 19.1013 89.6404 18.8867 89.898 18.6292C90.1555 18.3716 90.2843 18.0569 90.2843 17.7135C90.2843 17.2985 90.1698 16.9551 89.9266 16.669C89.6833 16.3828 89.297 16.1396 88.7962 15.9393C88.2955 15.7389 87.6516 15.5815 86.8646 15.4814C86.1206 15.3669 85.4767 15.2095 84.9187 14.9806C84.3607 14.7517 83.8885 14.4655 83.5165 14.1221C83.1445 13.7787 82.8584 13.3638 82.6581 12.8916C82.472 12.4194 82.3719 11.8901 82.3719 11.3034C82.3719 10.402 82.6008 9.64367 83.0587 9.01412C83.5165 8.38456 84.1318 7.89808 84.9187 7.58331C85.7057 7.25422 86.5642 7.08252 87.5085 7.08252C88.3956 7.08252 89.2255 7.21129 89.9838 7.48315C90.7421 7.74069 91.3574 8.08409 91.8439 8.49903C92.2445 8.81381 92.4448 9.18581 92.4448 9.58644C92.4448 9.88691 92.3303 10.1588 92.0871 10.402C91.8582 10.6452 91.5863 10.774 91.2715 10.774C91.0712 10.774 90.8852 10.7168 90.7135 10.588C90.4989 10.402 90.1984 10.216 89.8407 10.0586C89.4687 9.88691 89.0824 9.74383 88.6675 9.62936C88.2525 9.5149 87.8662 9.45767 87.5228 9.45767C86.9362 9.45767 86.4354 9.52921 86.0348 9.6866C85.6341 9.84399 85.3194 10.0443 85.119 10.3018C84.9187 10.5594 84.8186 10.8599 84.8186 11.2033C84.8186 11.6182 84.933 11.9473 85.1763 12.2191C85.4195 12.491 85.7629 12.7056 86.2208 12.8487C86.6786 13.0061 87.208 13.1492 87.8519 13.2779C88.6675 13.421 89.3972 13.607 90.0124 13.8073C90.6277 14.0077 91.1428 14.2652 91.5577 14.5943C91.9726 14.9234 92.2731 15.324 92.4877 15.8105C92.688 16.297 92.7882 16.8836 92.7882 17.5847C92.7596 18.4432 92.5163 19.2158 92.0299 19.8597ZM106.81 20.3891C106.81 20.7468 106.696 21.0473 106.452 21.2762C106.224 21.5194 105.894 21.6339 105.508 21.6339C105.179 21.6339 104.879 21.5194 104.635 21.2762C104.392 21.0473 104.263 20.7468 104.263 20.3891V15.5959H97.7102V20.3891C97.7102 20.7468 97.5814 21.0473 97.3239 21.2762C97.0663 21.5194 96.7515 21.6339 96.4081 21.6339C96.0218 21.6339 95.7214 21.5194 95.4924 21.2762C95.2635 21.0473 95.1347 20.7468 95.1347 20.3891V8.52764C95.1347 8.16994 95.2635 7.86947 95.5067 7.64054C95.75 7.3973 96.0648 7.28284 96.4511 7.28284C96.7802 7.28284 97.0806 7.3973 97.3239 7.64054C97.5671 7.86947 97.6959 8.16994 97.6959 8.52764V13.2493H104.249V8.52764C104.249 8.16994 104.378 7.86947 104.635 7.64054C104.893 7.3973 105.208 7.28284 105.551 7.28284C105.937 7.28284 106.238 7.3973 106.467 7.64054C106.696 7.86947 106.824 8.16994 106.824 8.52764V20.3891H106.81ZM122.592 17.3271C122.249 18.2142 121.762 19.0012 121.133 19.6737C120.517 20.3605 119.773 20.8755 118.915 21.2619C118.056 21.6482 117.126 21.8342 116.11 21.8342C115.095 21.8342 114.165 21.6482 113.32 21.2619C112.476 20.8899 111.732 20.3605 111.103 19.6737C110.487 18.9869 110.001 18.2142 109.657 17.3271C109.314 16.44 109.142 15.4814 109.142 14.4655C109.142 13.4353 109.314 12.4767 109.657 11.5896C110.001 10.7025 110.487 9.91553 111.103 9.24304C111.732 8.57056 112.462 8.04117 113.32 7.65485C114.165 7.26853 115.095 7.08252 116.11 7.08252C117.126 7.08252 118.056 7.26853 118.915 7.65485C119.773 8.04117 120.503 8.57056 121.133 9.24304C121.762 9.92983 122.249 10.7025 122.592 11.5896C122.935 12.4767 123.093 13.4353 123.093 14.4655C123.107 15.4814 122.935 16.44 122.592 17.3271ZM137.072 21.2905C136.914 21.4765 136.728 21.591 136.5 21.6339C136.271 21.6768 136.027 21.6768 135.798 21.6339C135.57 21.591 135.369 21.5194 135.226 21.4479C134.997 21.3048 134.754 21.1045 134.525 20.8469C134.296 20.5751 134.096 20.2174 133.953 19.7595C133.81 19.3017 133.724 18.7293 133.724 18.0139C133.724 17.785 133.681 17.5704 133.609 17.3701C133.523 17.1698 133.409 16.998 133.266 16.855C133.108 16.7119 132.922 16.6117 132.694 16.5259C132.465 16.4543 132.178 16.4114 131.864 16.4114H128.029V20.3891C128.029 20.7468 127.929 21.0473 127.743 21.2762C127.543 21.5194 127.285 21.6339 126.942 21.6339C126.555 21.6339 126.212 21.5194 125.912 21.2762C125.611 21.0473 125.454 20.7468 125.454 20.3891V8.52764C125.454 8.16994 125.568 7.86947 125.811 7.64054C126.04 7.3973 126.341 7.28284 126.698 7.28284H132.622C133.323 7.28284 133.996 7.46884 134.625 7.85516C135.24 8.22717 135.741 8.75657 136.128 9.41474C136.514 10.0729 136.7 10.8312 136.7 11.704C136.7 12.2191 136.6 12.7342 136.385 13.235C136.17 13.7215 135.884 14.165 135.512 14.5657C135.269 14.8375 134.997 15.0665 134.697 15.2525C134.911 15.3955 135.097 15.5672 135.269 15.7389C135.512 16.0108 135.713 16.3113 135.87 16.6403C136.013 16.9694 136.099 17.3128 136.128 17.6848C136.185 18.0282 136.213 18.3287 136.242 18.5863C136.256 18.8438 136.299 19.0727 136.356 19.2444C136.428 19.4304 136.542 19.5592 136.714 19.6594C137.015 19.8311 137.201 20.0886 137.286 20.432C137.372 20.7325 137.301 21.0329 137.072 21.2905ZM146.773 13.1206C147.13 13.1206 147.431 13.235 147.66 13.4496C147.903 13.6786 148.018 13.9647 148.018 14.3224C148.018 14.6658 147.903 14.952 147.66 15.1666C147.431 15.3812 147.13 15.4814 146.773 15.4814H142.137V19.273H147.688C148.046 19.273 148.347 19.3875 148.59 19.6307C148.819 19.8597 148.948 20.1458 148.948 20.4606C148.948 20.804 148.833 21.0902 148.59 21.3048C148.347 21.5337 148.046 21.6339 147.688 21.6339H140.821C140.463 21.6339 140.162 21.5194 139.919 21.2762C139.69 21.0473 139.561 20.7468 139.561 20.3891V8.52764C139.561 8.16994 139.676 7.86947 139.919 7.64054C140.162 7.3973 140.463 7.28284 140.821 7.28284H147.688C148.046 7.28284 148.347 7.3973 148.59 7.62623C148.819 7.85516 148.948 8.14133 148.948 8.49903C148.948 8.84242 148.833 9.11428 148.59 9.3289C148.347 9.54352 148.046 9.65798 147.688 9.65798H142.137V13.1492H146.773V13.1206Z" fill="black"/>
<path d="M242.294 0H159.049V2.01744H242.294V0Z" fill="black"/>
<path d="M242.294 26.8993H159.049V28.9167H242.294V26.8993Z" fill="black"/>
<path d="M170.739 7.26849C170.567 7.26849 170.438 7.35435 170.338 7.54035L165.101 20.1458L159.893 7.59758C159.793 7.36865 159.636 7.26849 159.435 7.26849C159.335 7.26849 159.249 7.31142 159.164 7.38296C159.078 7.46881 159.049 7.55465 159.049 7.66912C159.049 7.72635 159.049 7.76928 159.063 7.8122C159.078 7.85513 159.092 7.88374 159.106 7.91236L164.686 21.3906C164.715 21.4765 164.758 21.5337 164.844 21.5766C164.93 21.6195 165.001 21.6482 165.087 21.6482C165.173 21.6482 165.245 21.6195 165.316 21.5766C165.388 21.5337 165.431 21.4622 165.473 21.3906L171.097 7.85513C171.125 7.76928 171.139 7.71205 171.139 7.65481C171.139 7.54035 171.111 7.4545 171.039 7.38296C170.968 7.29711 170.868 7.26849 170.739 7.26849Z" fill="black"/>
<path d="M188.123 9.68656C188.696 9.09993 189.368 8.64207 190.126 8.32729C190.885 7.9982 191.7 7.84081 192.587 7.84081C193.36 7.84081 194.075 7.95527 194.762 8.19851C195.435 8.42744 196.064 8.74223 196.637 9.14285C196.737 9.20009 196.823 9.2144 196.923 9.2144C197.023 9.2144 197.109 9.15716 197.18 9.057C197.252 8.94254 197.28 8.84238 197.266 8.74222C197.252 8.62775 197.195 8.54191 197.08 8.45606C196.465 8.01251 195.778 7.66912 195.005 7.42588C194.233 7.18264 193.432 7.06818 192.587 7.06818C191.6 7.06818 190.684 7.25418 189.826 7.62619C188.967 7.9982 188.209 8.51329 187.537 9.17146C186.878 9.84395 186.363 10.6166 185.991 11.518C185.619 12.4194 185.419 13.3924 185.419 14.4655C185.419 15.5243 185.605 16.5115 185.991 17.3986C186.363 18.3 186.878 19.0727 187.537 19.7452C188.195 20.4177 188.953 20.9327 189.826 21.2904C190.684 21.6625 191.614 21.8485 192.587 21.8485C193.16 21.8485 193.718 21.7912 194.276 21.6625C194.834 21.5337 195.363 21.362 195.864 21.1331C196.365 20.9184 196.78 20.6895 197.109 20.4606C197.209 20.389 197.266 20.3032 197.28 20.203C197.295 20.0886 197.266 19.9884 197.195 19.8883C197.123 19.7881 197.023 19.7452 196.923 19.7309C196.823 19.7166 196.708 19.7452 196.622 19.8167C196.05 20.203 195.42 20.5035 194.748 20.7467C194.075 20.9757 193.36 21.0901 192.587 21.0901C191.715 21.0901 190.899 20.9327 190.126 20.6037C189.368 20.2889 188.71 19.831 188.123 19.2444C187.551 18.6578 187.093 17.9567 186.764 17.1554C186.435 16.3541 186.263 15.4527 186.263 14.4941C186.263 13.5211 186.435 12.6197 186.764 11.8185C187.093 10.9743 187.551 10.2732 188.123 9.68656Z" fill="black"/>
<path d="M178.236 7.49744C178.208 7.4116 178.15 7.34005 178.079 7.29713C178.007 7.2542 177.922 7.22559 177.821 7.22559C177.721 7.22559 177.65 7.2399 177.592 7.28282C177.521 7.31144 177.478 7.39728 177.435 7.51175L171.926 21.0902C171.898 21.176 171.883 21.2332 171.898 21.2905C171.912 21.3906 171.955 21.4765 172.027 21.548C172.098 21.6196 172.198 21.6482 172.327 21.6482C172.413 21.6482 172.484 21.6196 172.556 21.5766C172.628 21.5337 172.67 21.4622 172.699 21.3906L174.359 17.1984H181.227L181.212 17.1411L182.929 21.3906C182.958 21.4765 183.001 21.5337 183.087 21.5766C183.158 21.6196 183.244 21.6482 183.344 21.6482C183.459 21.6482 183.573 21.6196 183.645 21.548C183.716 21.4765 183.759 21.3763 183.759 21.2619C183.759 21.1903 183.759 21.1474 183.745 21.1045L178.236 7.49744ZM174.674 16.3685L177.75 8.61348L180.883 16.3685H174.674Z" fill="black"/>
<path d="M242.194 7.39726C242.122 7.32572 242.036 7.28279 241.922 7.26849C241.779 7.23987 241.65 7.31141 241.535 7.45449L235.855 15.9106L230.175 7.45449C230.118 7.38295 230.06 7.32572 229.989 7.2971C229.917 7.26849 229.846 7.25418 229.774 7.25418C229.66 7.25418 229.56 7.2971 229.488 7.38295C229.416 7.48311 229.388 7.56895 229.388 7.66911V21.2189C229.388 21.3334 229.431 21.4335 229.502 21.5051C229.574 21.5909 229.674 21.6195 229.788 21.6195C229.903 21.6195 229.989 21.5766 230.075 21.5051C230.16 21.4192 230.189 21.3334 230.189 21.2189V8.94254L235.497 16.9694C235.526 17.0266 235.569 17.0696 235.64 17.0839C235.698 17.1125 235.769 17.1268 235.827 17.1268C235.898 17.1268 235.955 17.1125 235.998 17.0839C236.041 17.0552 236.084 17.0123 236.113 16.9694L241.421 8.94254V21.2332C241.421 21.3477 241.464 21.4478 241.535 21.5194C241.621 21.6052 241.721 21.6338 241.836 21.6338C241.95 21.6338 242.051 21.5909 242.136 21.5194C242.222 21.4335 242.265 21.3477 242.265 21.2332V7.68342C242.294 7.56896 242.265 7.48311 242.194 7.39726Z" fill="black"/>
<path d="M224.866 7.26849C224.752 7.26849 224.652 7.31142 224.58 7.38296C224.509 7.46881 224.466 7.56896 224.466 7.66912V16.5402C224.466 17.3557 224.266 18.1141 223.865 18.7865C223.464 19.4733 222.921 20.0027 222.248 20.4177C221.576 20.8183 220.832 21.0186 220.016 21.0186C219.215 21.0186 218.471 20.8183 217.784 20.4177C217.111 20.017 216.582 19.4733 216.181 18.7865C215.781 18.1141 215.581 17.37 215.581 16.5402V7.66912C215.581 7.55465 215.538 7.46881 215.466 7.38296C215.38 7.29711 215.28 7.26849 215.151 7.26849C215.022 7.26849 214.908 7.31142 214.836 7.38296C214.751 7.46881 214.722 7.56896 214.722 7.66912V16.5402C214.722 17.5131 214.965 18.4002 215.437 19.2015C215.924 20.0027 216.568 20.6466 217.369 21.1188C218.17 21.5909 219.043 21.8342 220.03 21.8342C221.003 21.8342 221.876 21.5909 222.677 21.1188C223.479 20.6466 224.108 20.0027 224.58 19.2015C225.052 18.4002 225.296 17.5131 225.296 16.5402V7.66912C225.296 7.55465 225.253 7.46881 225.181 7.38296C225.095 7.31142 224.995 7.26849 224.866 7.26849Z" fill="black"/>
<path d="M210.186 7.26849C210.072 7.26849 209.972 7.31142 209.9 7.38296C209.829 7.46881 209.786 7.56896 209.786 7.66912V16.5402C209.786 17.3557 209.585 18.1141 209.185 18.7865C208.784 19.4733 208.24 20.0027 207.568 20.4177C206.895 20.8183 206.151 21.0186 205.322 21.0186C204.52 21.0186 203.776 20.8183 203.104 20.4177C202.417 20.017 201.888 19.4733 201.487 18.7865C201.086 18.1141 200.886 17.37 200.886 16.5402V7.66912C200.886 7.55465 200.843 7.46881 200.772 7.38296C200.686 7.29711 200.586 7.26849 200.471 7.26849C200.328 7.26849 200.228 7.31142 200.142 7.38296C200.071 7.46881 200.028 7.56896 200.028 7.66912V16.5402C200.028 17.5131 200.271 18.4002 200.743 19.2015C201.215 20.0027 201.859 20.6466 202.66 21.1188C203.462 21.5909 204.349 21.8342 205.322 21.8342C206.295 21.8342 207.182 21.5909 207.983 21.1188C208.784 20.6466 209.414 20.0027 209.886 19.2015C210.358 18.4002 210.601 17.5131 210.601 16.5402V7.66912C210.601 7.55465 210.558 7.46881 210.487 7.38296C210.401 7.31142 210.301 7.26849 210.186 7.26849Z" fill="black"/>
<path d="M19.3303 41.3364C19.9026 41.9373 20.6896 42.3379 21.5194 42.3379C22.5639 42.3379 23.1792 41.8228 23.1792 41.0359C23.1792 40.2203 22.5926 39.9628 21.8485 39.6337L20.7039 39.1329C19.9599 38.8181 19.0871 38.2458 19.0871 37.0868C19.0871 35.8707 20.1602 34.9836 21.591 34.9836C22.5353 34.9836 23.3795 35.3842 23.9375 35.9708L23.4081 36.629C22.9216 36.1711 22.335 35.8707 21.6053 35.8707C20.7039 35.8707 20.1172 36.3142 20.1172 37.0296C20.1172 37.7879 20.8183 38.0884 21.4336 38.346L22.5782 38.8324C23.494 39.2331 24.2094 39.7768 24.2094 40.95C24.2094 42.2091 23.1649 43.225 21.4908 43.225C20.3748 43.225 19.4018 42.7672 18.7151 42.0518L19.3303 41.3364Z" fill="black"/>
<path d="M30.0757 40.6494H27.1711L26.4128 43.0817H25.3826L28.0725 35.1264H29.2172L31.9071 43.0817H30.834L30.0757 40.6494ZM29.8181 39.8338L29.4461 38.6176C29.1743 37.7305 28.9167 36.8577 28.6592 35.942H28.6162C28.3587 36.8577 28.1012 37.7305 27.8293 38.6176L27.443 39.8338H29.8181Z" fill="black"/>
<path d="M33.6956 35.1121H34.7115V42.2089H38.1741V43.0674H33.6813V35.1121H33.6956Z" fill="black"/>
<path d="M40.2488 35.1121H44.8274V35.9563H41.2647V38.4602H44.2694V39.3187H41.2647V42.2089H44.9561V43.0674H40.2488V35.1121Z" fill="black"/>
<path d="M47.3456 41.3361C47.9179 41.9371 48.7049 42.3377 49.5347 42.3377C50.5792 42.3377 51.1945 41.8226 51.1945 41.0357C51.1945 40.2201 50.6078 39.9626 49.8638 39.6335L48.7192 39.1327C47.9751 38.8179 47.1024 38.2456 47.1024 37.0866C47.1024 35.8704 48.1755 34.9833 49.6063 34.9833C50.5506 34.9833 51.3948 35.384 51.9528 35.9706L51.4234 36.6288C50.9369 36.1709 50.3503 35.8704 49.6206 35.8704C48.7192 35.8704 48.1325 36.314 48.1325 37.0294C48.1325 37.7877 48.8336 38.0882 49.4489 38.3457L50.5935 38.8322C51.5093 39.2329 52.2247 39.7766 52.2247 40.9498C52.2247 42.2089 51.1802 43.2248 49.5061 43.2248C48.3901 43.2248 47.4171 42.767 46.7303 42.0516L47.3456 41.3361Z" fill="black"/>
<path d="M57.0608 39.8767C57.0608 39.0039 57.6904 38.403 58.4201 38.403C59.1498 38.403 59.7793 39.0039 59.7793 39.8767C59.7793 40.7495 59.1498 41.3361 58.4201 41.3361C57.6904 41.3361 57.0608 40.7495 57.0608 39.8767Z" fill="black"/>
<path d="M65.2594 41.3361C65.8317 41.9371 66.6186 42.3377 67.4485 42.3377C68.493 42.3377 69.1083 41.8226 69.1083 41.0357C69.1083 40.2201 68.5216 39.9626 67.7776 39.6335L66.6329 39.1327C65.8889 38.8179 65.0161 38.2456 65.0161 37.0866C65.0161 35.8704 66.0892 34.9833 67.5201 34.9833C68.4644 34.9833 69.3086 35.384 69.8666 35.9706L69.3372 36.6288C68.8507 36.1709 68.2641 35.8704 67.5344 35.8704C66.6329 35.8704 66.0463 36.314 66.0463 37.0294C66.0463 37.7877 66.7474 38.0882 67.3627 38.3457L68.5073 38.8322C69.423 39.2329 70.1384 39.7766 70.1384 40.9498C70.1384 42.2089 69.0939 43.2248 67.4199 43.2248C66.3039 43.2248 65.3309 42.767 64.6441 42.0516L65.2594 41.3361Z" fill="black"/>
<path d="M72.3705 35.1121H76.9491V35.9563H73.3864V38.4602H76.3911V39.3187H73.3864V42.2089H77.0779V43.0674H72.3705V35.1121Z" fill="black"/>
<path d="M83.7884 43.0674L81.8711 39.705H80.4403V43.0674H79.4244V35.1121H81.9283C83.5451 35.1121 84.7041 35.6987 84.7041 37.3442C84.7041 38.5747 84.003 39.3187 82.9156 39.6048L84.9473 43.0674H83.7884ZM80.4403 38.8894H81.7709C83.0014 38.8894 83.6882 38.3743 83.6882 37.3442C83.6882 36.2997 83.0157 35.9276 81.7709 35.9276H80.4403V38.8894Z" fill="black"/>
<path d="M85.8917 35.1121H86.9648L88.2525 39.4045C88.5244 40.3489 88.7247 41.1072 89.0109 42.0372H89.0538C89.3399 41.1072 89.5546 40.3489 89.8121 39.4045L91.0855 35.1121H92.1157L89.5975 43.0674H88.4242L85.8917 35.1121Z" fill="black"/>
<path d="M93.8899 35.1121H94.9058V43.0674H93.8899V35.1121Z" fill="black"/>
<path d="M100.829 34.969C101.774 34.969 102.532 35.4269 103.004 35.9563L102.432 36.6001C102.003 36.1566 101.502 35.8561 100.844 35.8561C99.327 35.8561 98.3254 37.0866 98.3254 39.0754C98.3254 41.0786 99.2841 42.3377 100.801 42.3377C101.559 42.3377 102.117 42.0229 102.618 41.4506L103.19 42.0659C102.575 42.7956 101.788 43.2248 100.772 43.2248C98.769 43.2248 97.2809 41.6938 97.2809 39.1041C97.2809 36.5286 98.7976 34.969 100.829 34.969Z" fill="black"/>
<path d="M105.336 35.1121H109.915V35.9563H106.352V38.4602H109.357V39.3187H106.352V42.2089H110.044V43.0674H105.336V35.1121Z" fill="black"/>
<path d="M114.994 39.8767C114.994 39.0039 115.624 38.403 116.354 38.403C117.083 38.403 117.713 39.0039 117.713 39.8767C117.713 40.7495 117.083 41.3361 116.354 41.3361C115.624 41.3361 114.994 40.7495 114.994 39.8767Z" fill="black"/>
<path d="M126.255 34.969C127.199 34.969 127.958 35.4269 128.43 35.9563L127.857 36.6001C127.428 36.1566 126.927 35.8561 126.269 35.8561C124.753 35.8561 123.751 37.0866 123.751 39.0754C123.751 41.0786 124.71 42.3377 126.226 42.3377C126.985 42.3377 127.543 42.0229 128.043 41.4506L128.616 42.0659C128 42.7956 127.214 43.2248 126.198 43.2248C124.195 43.2248 122.706 41.6938 122.706 39.1041C122.692 36.5286 124.209 34.969 126.255 34.969Z" fill="black"/>
<path d="M130.748 35.1121H135.326V35.9563H131.764V38.4602H134.768V39.3187H131.764V42.2089H135.455V43.0674H130.748V35.1121Z" fill="black"/>
<path d="M137.816 35.1121H138.86L141.751 40.1056L142.609 41.7511H142.652C142.609 40.9498 142.523 40.0484 142.523 39.2185V35.1121H143.482V43.0674H142.437L139.561 38.0596L138.703 36.4284H138.66C138.703 37.2297 138.775 38.0739 138.775 38.918V43.0817H137.816V35.1121Z" fill="black"/>
<path d="M147.989 35.9563H145.571V35.1121H151.409V35.9563H148.991V43.0674H147.989V35.9563Z" fill="black"/>
<path d="M157.862 43.0674L155.944 39.705H154.513V43.0674H153.498V35.1121H156.001C157.618 35.1121 158.777 35.6987 158.777 37.3442C158.777 38.5747 158.076 39.3187 156.989 39.6048L159.02 43.0674H157.862ZM154.513 38.8894H155.844C157.075 38.8894 157.761 38.3743 157.761 37.3442C157.761 36.2997 157.089 35.9276 155.844 35.9276H154.513V38.8894Z" fill="black"/>
<path d="M164.715 40.6494H161.811L161.052 43.0817H160.022L162.712 35.1264H163.857L166.547 43.0817H165.473L164.715 40.6494ZM164.472 39.8338L164.1 38.6176C163.814 37.7305 163.57 36.8577 163.313 35.942H163.27C163.012 36.8577 162.755 37.7305 162.483 38.6176L162.097 39.8338H164.472Z" fill="black"/>
<path d="M168.335 35.1121H169.351V42.2089H172.814V43.0674H168.321V35.1121H168.335Z" fill="black"/>
<path d="M176.992 35.1121H178.065L179.352 39.4045C179.639 40.3489 179.825 41.1072 180.111 42.0372H180.154C180.44 41.1072 180.654 40.3489 180.912 39.4045L182.185 35.1121H183.216L180.697 43.0674H179.524L176.992 35.1121Z" fill="black"/>
<path d="M188.452 40.6494H185.548L184.789 43.0817H183.759L186.449 35.1264H187.594L190.284 43.0817H189.211L188.452 40.6494ZM188.195 39.8338L187.823 38.6176C187.551 37.7305 187.293 36.8577 187.036 35.942H186.993C186.735 36.8577 186.478 37.7305 186.206 38.6176L185.82 39.8338H188.195Z" fill="black"/>
<path d="M195.048 34.969C195.993 34.969 196.751 35.4269 197.223 35.9563L196.651 36.6001C196.222 36.1566 195.721 35.8561 195.063 35.8561C193.546 35.8561 192.544 37.0866 192.544 39.0754C192.544 41.0786 193.503 42.3377 195.02 42.3377C195.778 42.3377 196.336 42.0229 196.837 41.4506L197.409 42.0659C196.794 42.7956 196.007 43.2248 194.991 43.2248C192.988 43.2248 191.5 41.6938 191.5 39.1041C191.486 36.5286 193.002 34.969 195.048 34.969Z" fill="black"/>
<path d="M199.341 35.1121H200.357V39.8051C200.357 41.7224 201.172 42.3234 202.202 42.3234C203.261 42.3234 204.091 41.7224 204.091 39.8051V35.1121H205.064V39.7765C205.064 42.3377 203.834 43.2105 202.202 43.2105C200.571 43.2105 199.341 42.3377 199.341 39.7765V35.1121Z" fill="black"/>
<path d="M207.826 35.1121H208.841V39.8051C208.841 41.7224 209.657 42.3234 210.687 42.3234C211.746 42.3234 212.576 41.7224 212.576 39.8051V35.1121H213.549V39.7765C213.549 42.3377 212.318 43.2105 210.687 43.2105C209.056 43.2105 207.826 42.3377 207.826 39.7765V35.1121Z" fill="black"/>
<path d="M216.353 35.1121H217.555L219.1 39.3759L219.673 41.007H219.716L220.274 39.3759L221.805 35.1121H222.992V43.0674H222.033V38.6891C222.033 37.988 222.119 37.0437 222.162 36.3426H222.119L221.49 38.1168L219.959 42.2805H219.372L217.841 38.1168L217.212 36.3426H217.169C217.212 37.0437 217.283 37.988 217.283 38.6891V43.0674H216.353V35.1121Z" fill="black"/>
</svg>
