<svg width="218" height="60" viewBox="0 0 218 60" fill="none" xmlns="http://www.w3.org/2000/svg">
<path d="M29.0154 14.9012V28.4233H25.9971L20.8891 19.6841V28.4233H17.8615V14.9012H20.8891L26.0063 23.6404V14.9012H29.0154Z" fill="#0A4061"/>
<path d="M30.6871 23.5011V23.3061C30.6871 22.5693 30.7923 21.8913 31.0028 21.2722C31.2133 20.6469 31.5229 20.1051 31.9315 19.647C32.3402 19.1888 32.8417 18.8328 33.436 18.5789C34.0304 18.3189 34.7115 18.1889 35.4792 18.1889C36.2593 18.1889 36.9466 18.3189 37.5409 18.5789C38.1415 18.8328 38.6461 19.1888 39.0547 19.647C39.4634 20.1051 39.773 20.6469 39.9835 21.2722C40.194 21.8913 40.2992 22.5693 40.2992 23.3061V23.5011C40.2992 24.2317 40.194 24.9097 39.9835 25.535C39.773 26.1541 39.4634 26.6959 39.0547 27.1602C38.6461 27.6184 38.1446 27.9744 37.5502 28.2282C36.9559 28.4821 36.2717 28.609 35.4978 28.609C34.73 28.609 34.0459 28.4821 33.4453 28.2282C32.8448 27.9744 32.3402 27.6184 31.9315 27.1602C31.5229 26.6959 31.2133 26.1541 31.0028 25.535C30.7923 24.9097 30.6871 24.2317 30.6871 23.5011ZM33.5939 23.3061V23.5011C33.5939 23.8974 33.6249 24.2688 33.6868 24.6156C33.7549 24.9623 33.8632 25.2657 34.0118 25.5257C34.1604 25.7857 34.3555 25.9901 34.5969 26.1386C34.8446 26.281 35.1449 26.3523 35.4978 26.3523C35.8507 26.3523 36.1479 26.281 36.3893 26.1386C36.6308 25.9901 36.8258 25.7857 36.9744 25.5257C37.123 25.2657 37.2283 24.9623 37.2902 24.6156C37.3583 24.2688 37.3924 23.8974 37.3924 23.5011V23.3061C37.3924 22.916 37.3583 22.5507 37.2902 22.2102C37.2283 21.8635 37.123 21.557 36.9744 21.2908C36.8258 21.0245 36.6277 20.8171 36.3801 20.6685C36.1386 20.5199 35.8383 20.4456 35.4792 20.4456C35.1325 20.4456 34.8384 20.5199 34.5969 20.6685C34.3555 20.8171 34.1604 21.0245 34.0118 21.2908C33.8632 21.557 33.7549 21.8635 33.6868 22.2102C33.6249 22.5507 33.5939 22.916 33.5939 23.3061Z" fill="#0A4061"/>
<path d="M44.7292 20.715V28.4233H41.8316V18.3746H44.5527L44.7292 20.715ZM47.7289 18.3003L47.6825 21.0029C47.5587 20.9843 47.3977 20.9688 47.1996 20.9564C47.0014 20.9379 46.8312 20.9286 46.6888 20.9286C46.3173 20.9286 45.9953 20.975 45.7229 21.0679C45.4567 21.1546 45.2338 21.2846 45.0542 21.4579C44.8809 21.6313 44.7508 21.848 44.6642 22.108C44.5775 22.3619 44.5341 22.656 44.5341 22.9903L43.9862 22.721C43.9862 22.0585 44.0512 21.4517 44.1812 20.9007C44.3113 20.3497 44.5001 19.8729 44.7478 19.4705C44.9954 19.0619 45.2988 18.7461 45.6579 18.5232C46.017 18.3003 46.4256 18.1889 46.8838 18.1889C47.0324 18.1889 47.1841 18.1982 47.3389 18.2167C47.4936 18.2353 47.6237 18.2632 47.7289 18.3003Z" fill="#0A4061"/>
<path d="M54.4899 18.3746V20.4085H48.5276V18.3746H54.4899ZM49.8928 15.8857H52.7997V25.2749C52.7997 25.5536 52.8337 25.7672 52.9018 25.9158C52.9699 26.0644 53.0814 26.1696 53.2362 26.2315C53.391 26.2872 53.5891 26.3151 53.8306 26.3151C54.0039 26.3151 54.1525 26.3089 54.2763 26.2965C54.4002 26.2841 54.5147 26.2687 54.62 26.2501V28.349C54.3723 28.4295 54.1092 28.4914 53.8306 28.5347C53.5519 28.5843 53.2486 28.609 52.9204 28.609C52.2951 28.609 51.7533 28.5069 51.2952 28.3025C50.8432 28.0982 50.4965 27.7763 50.255 27.3367C50.0135 26.8909 49.8928 26.312 49.8928 25.6V15.8857Z" fill="#0A4061"/>
<path d="M58.7156 14.1583V28.4233H55.818V14.1583H58.7156ZM58.3348 23.046L57.6104 23.0646C57.6104 22.3588 57.6971 21.7118 57.8704 21.1236C58.05 20.5292 58.3038 20.0122 58.632 19.5727C58.9601 19.1331 59.3533 18.7925 59.8115 18.5511C60.2758 18.3096 60.7866 18.1889 61.3438 18.1889C61.8391 18.1889 62.2911 18.2601 62.6998 18.4025C63.1084 18.5449 63.4613 18.7709 63.7585 19.0804C64.0557 19.39 64.2848 19.7955 64.4457 20.297C64.6067 20.7986 64.6872 21.4084 64.6872 22.1266V28.4233H61.771V22.108C61.771 21.6808 61.7091 21.3465 61.5853 21.105C61.4677 20.8636 61.2943 20.6933 61.0652 20.5942C60.8423 20.4952 60.5699 20.4456 60.248 20.4456C59.8703 20.4456 59.5576 20.5137 59.31 20.65C59.0623 20.78 58.8673 20.9626 58.7249 21.1979C58.5825 21.4332 58.4803 21.7087 58.4184 22.0245C58.3627 22.3402 58.3348 22.6807 58.3348 23.046Z" fill="#0A4061"/>
<path d="M78.4786 24.857C78.4786 24.6279 78.4445 24.4236 78.3764 24.2441C78.3083 24.0583 78.1845 23.8881 78.0049 23.7333C77.8254 23.5785 77.5715 23.4237 77.2434 23.2689C76.9152 23.108 76.4849 22.9439 75.9525 22.7767C75.3457 22.5786 74.7668 22.3557 74.2158 22.108C73.6709 21.8542 73.1849 21.5601 72.7577 21.2258C72.3305 20.8914 71.9931 20.5014 71.7454 20.0556C71.5039 19.6098 71.3832 19.0897 71.3832 18.4953C71.3832 17.9195 71.5101 17.3995 71.764 16.9351C72.0178 16.4708 72.3738 16.0745 72.832 15.7464C73.2902 15.412 73.8288 15.1582 74.448 14.9848C75.0671 14.8053 75.7482 14.7155 76.4911 14.7155C77.4818 14.7155 78.3516 14.8919 79.1008 15.2449C79.8562 15.5916 80.4443 16.0807 80.8654 16.7122C81.2864 17.3376 81.4969 18.065 81.4969 18.8947H78.4879C78.4879 18.5294 78.4105 18.2074 78.2557 17.9288C78.1071 17.644 77.878 17.4211 77.5684 17.2602C77.265 17.0992 76.8843 17.0187 76.4261 17.0187C75.9803 17.0187 75.6058 17.0868 75.3024 17.223C75.0052 17.353 74.7792 17.5326 74.6244 17.7617C74.4758 17.9907 74.4015 18.2415 74.4015 18.5139C74.4015 18.7306 74.4572 18.9287 74.5687 19.1083C74.6863 19.2817 74.8535 19.4457 75.0702 19.6005C75.2931 19.7491 75.5655 19.8915 75.8875 20.0277C76.2094 20.1639 76.5778 20.294 76.9926 20.4178C77.717 20.6469 78.3578 20.9007 78.9151 21.1793C79.4785 21.4579 79.9521 21.7737 80.336 22.1266C80.7199 22.4795 81.0078 22.8789 81.1997 23.3247C81.3978 23.7704 81.4969 24.275 81.4969 24.8385C81.4969 25.439 81.3792 25.9715 81.144 26.4358C80.9149 26.9002 80.5806 27.2964 80.141 27.6246C79.7076 27.9465 79.1875 28.1911 78.5807 28.3583C77.974 28.5254 77.296 28.609 76.5468 28.609C75.8658 28.609 75.194 28.5223 74.5315 28.349C73.8691 28.1694 73.2685 27.897 72.7298 27.5317C72.1974 27.1664 71.7702 26.7021 71.4482 26.1386C71.1325 25.569 70.9746 24.8942 70.9746 24.1141H74.0022C74.0022 24.5227 74.061 24.8694 74.1786 25.1542C74.2963 25.4328 74.4634 25.6588 74.6801 25.8322C74.903 26.0055 75.1724 26.1294 75.4881 26.2037C75.8039 26.278 76.1568 26.3151 76.5468 26.3151C76.9988 26.3151 77.3641 26.2532 77.6427 26.1294C77.9275 25.9993 78.138 25.8229 78.2743 25.6C78.4105 25.3771 78.4786 25.1294 78.4786 24.857Z" fill="#0A4061"/>
<path d="M85.964 14.1583V28.4233H83.0664V14.1583H85.964ZM85.5832 23.046L84.8588 23.0646C84.8588 22.3588 84.9455 21.7118 85.1189 21.1236C85.2984 20.5292 85.5523 20.0122 85.8804 19.5727C86.2085 19.1331 86.6017 18.7925 87.0599 18.5511C87.5242 18.3096 88.035 18.1889 88.5922 18.1889C89.0876 18.1889 89.5395 18.2601 89.9482 18.4025C90.3568 18.5449 90.7097 18.7709 91.0069 19.0804C91.3041 19.39 91.5332 19.7955 91.6941 20.297C91.8551 20.7986 91.9356 21.4084 91.9356 22.1266V28.4233H89.0194V22.108C89.0194 21.6808 88.9575 21.3465 88.8337 21.105C88.7161 20.8636 88.5427 20.6933 88.3136 20.5942C88.0907 20.4952 87.8183 20.4456 87.4964 20.4456C87.1187 20.4456 86.806 20.5137 86.5584 20.65C86.3107 20.78 86.1157 20.9626 85.9733 21.1979C85.8309 21.4332 85.7287 21.7087 85.6668 22.0245C85.6111 22.3402 85.5832 22.6807 85.5832 23.046Z" fill="#0A4061"/>
<path d="M93.4123 23.5011V23.3061C93.4123 22.5693 93.5175 21.8913 93.728 21.2722C93.9385 20.6469 94.2481 20.1051 94.6567 19.647C95.0654 19.1888 95.5669 18.8328 96.1612 18.5789C96.7556 18.3189 97.4367 18.1889 98.2044 18.1889C98.9845 18.1889 99.6718 18.3189 100.266 18.5789C100.867 18.8328 101.371 19.1888 101.78 19.647C102.189 20.1051 102.498 20.6469 102.709 21.2722C102.919 21.8913 103.024 22.5693 103.024 23.3061V23.5011C103.024 24.2317 102.919 24.9097 102.709 25.535C102.498 26.1541 102.189 26.6959 101.78 27.1602C101.371 27.6184 100.87 27.9744 100.275 28.2282C99.6811 28.4821 98.9969 28.609 98.223 28.609C97.4552 28.609 96.7711 28.4821 96.1705 28.2282C95.57 27.9744 95.0654 27.6184 94.6567 27.1602C94.2481 26.6959 93.9385 26.1541 93.728 25.535C93.5175 24.9097 93.4123 24.2317 93.4123 23.5011ZM96.3191 23.3061V23.5011C96.3191 23.8974 96.3501 24.2688 96.412 24.6156C96.4801 24.9623 96.5884 25.2657 96.737 25.5257C96.8856 25.7857 97.0807 25.9901 97.3221 26.1386C97.5698 26.281 97.8701 26.3523 98.223 26.3523C98.5759 26.3523 98.8731 26.281 99.1145 26.1386C99.356 25.9901 99.551 25.7857 99.6996 25.5257C99.8482 25.2657 99.9535 24.9623 100.015 24.6156C100.084 24.2688 100.118 23.8974 100.118 23.5011V23.3061C100.118 22.916 100.084 22.5507 100.015 22.2102C99.9535 21.8635 99.8482 21.557 99.6996 21.2908C99.551 21.0245 99.3529 20.8171 99.1053 20.6685C98.8638 20.5199 98.5635 20.4456 98.2044 20.4456C97.8577 20.4456 97.5636 20.5199 97.3221 20.6685C97.0807 20.8171 96.8856 21.0245 96.737 21.2908C96.5884 21.557 96.4801 21.8635 96.412 22.2102C96.3501 22.5507 96.3191 22.916 96.3191 23.3061Z" fill="#0A4061"/>
<path d="M107.454 20.715V28.4233H104.557V18.3746H107.278L107.454 20.715ZM110.454 18.3003L110.408 21.0029C110.284 20.9843 110.123 20.9688 109.925 20.9564C109.727 20.9379 109.556 20.9286 109.414 20.9286C109.042 20.9286 108.721 20.975 108.448 21.0679C108.182 21.1546 107.959 21.2846 107.779 21.4579C107.606 21.6313 107.476 21.848 107.389 22.108C107.303 22.3619 107.259 22.656 107.259 22.9903L106.711 22.721C106.711 22.0585 106.776 21.4517 106.906 20.9007C107.036 20.3497 107.225 19.8729 107.473 19.4705C107.721 19.0619 108.024 18.7461 108.383 18.5232C108.742 18.3003 109.151 18.1889 109.609 18.1889C109.758 18.1889 109.909 18.1982 110.064 18.2167C110.219 18.2353 110.349 18.2632 110.454 18.3003Z" fill="#0A4061"/>
<path d="M116.194 28.609C115.395 28.609 114.68 28.4821 114.048 28.2282C113.417 27.9744 112.881 27.6246 112.442 27.1788C112.008 26.7268 111.677 26.2068 111.448 25.6186C111.219 25.0304 111.104 24.402 111.104 23.7333V23.3804C111.104 22.6312 111.209 21.9409 111.42 21.3093C111.63 20.6778 111.937 20.1299 112.339 19.6655C112.748 19.195 113.25 18.8328 113.844 18.5789C114.438 18.3189 115.116 18.1889 115.878 18.1889C116.59 18.1889 117.224 18.3065 117.782 18.5418C118.339 18.7709 118.809 19.1021 119.193 19.5355C119.577 19.9627 119.868 20.4797 120.066 21.0865C120.271 21.687 120.373 22.3619 120.373 23.111V24.2998H112.274V22.4331H117.531V22.2102C117.531 21.8573 117.466 21.5477 117.336 21.2815C117.212 21.0153 117.026 20.8109 116.779 20.6685C116.537 20.5199 116.231 20.4456 115.859 20.4456C115.506 20.4456 115.212 20.5199 114.977 20.6685C114.742 20.8171 114.553 21.0276 114.41 21.3001C114.274 21.5663 114.175 21.879 114.113 22.2381C114.051 22.591 114.02 22.9717 114.02 23.3804V23.7333C114.02 24.1233 114.073 24.4793 114.178 24.8013C114.284 25.1233 114.438 25.3988 114.643 25.6279C114.847 25.8569 115.095 26.0365 115.386 26.1665C115.677 26.2965 116.008 26.3615 116.379 26.3615C116.837 26.3615 117.274 26.2749 117.689 26.1015C118.104 25.9219 118.463 25.6433 118.766 25.2657L120.122 26.8166C119.918 27.1138 119.63 27.4017 119.258 27.6803C118.893 27.9527 118.453 28.1756 117.94 28.349C117.426 28.5223 116.844 28.609 116.194 28.609Z" fill="#0A4061"/>
<path d="M131.666 25.4235L134.675 14.9012H138.046L133.412 28.4233H131.211L131.666 25.4235ZM128.926 14.9012L131.926 25.4235L132.4 28.4233H130.171L125.564 14.9012H128.926Z" fill="#0A4061"/>
<path d="M143.916 26.0272V21.718C143.916 21.4146 143.869 21.1546 143.776 20.9379C143.683 20.7212 143.538 20.5509 143.34 20.4271C143.142 20.3032 142.885 20.2413 142.569 20.2413C142.303 20.2413 142.071 20.2878 141.872 20.3806C141.681 20.4735 141.532 20.6066 141.427 20.78C141.328 20.9533 141.278 21.1669 141.278 21.4208H138.38C138.38 20.9688 138.483 20.5478 138.687 20.1577C138.891 19.7677 139.182 19.4241 139.56 19.1269C139.944 18.8297 140.402 18.6006 140.934 18.4396C141.467 18.2725 142.064 18.1889 142.727 18.1889C143.513 18.1889 144.213 18.322 144.826 18.5882C145.445 18.8483 145.934 19.2414 146.293 19.7677C146.652 20.2878 146.832 20.9441 146.832 21.7366V25.9436C146.832 26.5504 146.866 27.0271 146.934 27.3738C147.008 27.7144 147.113 28.0115 147.25 28.2654V28.4233H144.324C144.188 28.1323 144.086 27.7732 144.018 27.346C143.95 26.9126 143.916 26.473 143.916 26.0272ZM144.278 22.2938L144.296 23.8912H142.857C142.535 23.8912 142.256 23.9314 142.021 24.0119C141.792 24.0924 141.606 24.2038 141.464 24.3462C141.321 24.4824 141.216 24.6434 141.148 24.8292C141.086 25.0087 141.055 25.2068 141.055 25.4235C141.055 25.6279 141.105 25.8136 141.204 25.9808C141.303 26.1417 141.439 26.2687 141.612 26.3615C141.786 26.4544 141.987 26.5008 142.216 26.5008C142.594 26.5008 142.916 26.4265 143.182 26.278C143.454 26.1294 143.665 25.9498 143.813 25.7393C143.962 25.5226 144.036 25.3214 144.036 25.1356L144.733 26.343C144.621 26.5906 144.485 26.8476 144.324 27.1138C144.163 27.3738 143.959 27.6184 143.711 27.8475C143.464 28.0704 143.163 28.253 142.81 28.3954C142.464 28.5378 142.046 28.609 141.557 28.609C140.925 28.609 140.352 28.4821 139.839 28.2282C139.325 27.9682 138.913 27.6122 138.603 27.1602C138.3 26.7083 138.148 26.1882 138.148 25.6C138.148 25.0737 138.244 24.6063 138.436 24.1976C138.628 23.789 138.916 23.4423 139.3 23.1575C139.69 22.8727 140.179 22.6591 140.767 22.5167C141.355 22.3681 142.043 22.2938 142.829 22.2938H144.278Z" fill="#0A4061"/>
<path d="M152.933 26.3523C153.243 26.3523 153.512 26.2934 153.741 26.1758C153.97 26.0582 154.147 25.8941 154.271 25.6836C154.401 25.4669 154.466 25.2068 154.466 24.9035H157.196C157.196 25.634 157.007 26.278 156.63 26.8352C156.258 27.3924 155.757 27.8289 155.125 28.1447C154.494 28.4542 153.782 28.609 152.989 28.609C152.209 28.609 151.528 28.4821 150.946 28.2282C150.364 27.9682 149.878 27.606 149.488 27.1417C149.098 26.6773 148.804 26.1386 148.606 25.5257C148.414 24.9066 148.318 24.2379 148.318 23.5197V23.2782C148.318 22.5662 148.414 21.9006 148.606 21.2815C148.804 20.6623 149.098 20.1206 149.488 19.6562C149.878 19.1919 150.361 18.8328 150.937 18.5789C151.519 18.3189 152.2 18.1889 152.98 18.1889C153.803 18.1889 154.531 18.3468 155.162 18.6625C155.8 18.9783 156.298 19.4333 156.658 20.0277C157.017 20.6159 157.196 21.3248 157.196 22.1545H154.466C154.466 21.8325 154.407 21.5446 154.289 21.2908C154.178 21.0307 154.005 20.8264 153.769 20.6778C153.54 20.523 153.255 20.4456 152.915 20.4456C152.562 20.4456 152.271 20.523 152.042 20.6778C151.819 20.8264 151.649 21.0338 151.531 21.3001C151.413 21.5663 151.333 21.8697 151.29 22.2102C151.246 22.5445 151.225 22.9005 151.225 23.2782V23.5197C151.225 23.9035 151.246 24.2688 151.29 24.6156C151.333 24.9561 151.413 25.2564 151.531 25.5164C151.655 25.7765 151.828 25.9808 152.051 26.1294C152.274 26.278 152.568 26.3523 152.933 26.3523Z" fill="#0A4061"/>
<path d="M164.533 25.9993V18.3746H167.449V28.4233H164.719L164.533 25.9993ZM164.839 23.9469L165.638 23.9283C165.638 24.6032 165.558 25.2254 165.397 25.795C165.242 26.3646 165.007 26.8599 164.691 27.281C164.381 27.702 163.994 28.0301 163.53 28.2654C163.072 28.4945 162.536 28.609 161.923 28.609C161.428 28.609 160.973 28.5409 160.558 28.4047C160.149 28.2623 159.797 28.0425 159.499 27.7453C159.202 27.4419 158.973 27.055 158.812 26.5844C158.651 26.1077 158.571 25.5381 158.571 24.8756V18.3746H161.468V24.8942C161.468 25.1542 161.499 25.3771 161.561 25.5628C161.629 25.7424 161.719 25.891 161.83 26.0086C161.948 26.1263 162.09 26.2129 162.258 26.2687C162.431 26.3244 162.62 26.3523 162.824 26.3523C163.338 26.3523 163.741 26.247 164.032 26.0365C164.329 25.8198 164.536 25.5319 164.654 25.1728C164.778 24.8075 164.839 24.3989 164.839 23.9469Z" fill="#0A4061"/>
<path d="M175.232 25.9993V18.3746H178.148V28.4233H175.418L175.232 25.9993ZM175.538 23.9469L176.337 23.9283C176.337 24.6032 176.256 25.2254 176.095 25.795C175.941 26.3646 175.705 26.8599 175.39 27.281C175.08 27.702 174.693 28.0301 174.229 28.2654C173.771 28.4945 173.235 28.609 172.622 28.609C172.127 28.609 171.672 28.5409 171.257 28.4047C170.848 28.2623 170.495 28.0425 170.198 27.7453C169.901 27.4419 169.672 27.055 169.511 26.5844C169.35 26.1077 169.269 25.5381 169.269 24.8756V18.3746H172.167V24.8942C172.167 25.1542 172.198 25.3771 172.26 25.5628C172.328 25.7424 172.418 25.891 172.529 26.0086C172.647 26.1263 172.789 26.2129 172.956 26.2687C173.13 26.3244 173.319 26.3523 173.523 26.3523C174.037 26.3523 174.439 26.247 174.73 26.0365C175.027 25.8198 175.235 25.5319 175.353 25.1728C175.476 24.8075 175.538 24.3989 175.538 23.9469Z" fill="#0A4061"/>
<path d="M182.94 20.4828V28.4233H180.042V18.3746H182.764L182.94 20.4828ZM182.569 23.046L181.835 23.0646C181.835 22.3588 181.919 21.7118 182.086 21.1236C182.259 20.5292 182.51 20.0122 182.838 19.5727C183.166 19.1331 183.572 18.7925 184.055 18.5511C184.544 18.3096 185.107 18.1889 185.745 18.1889C186.191 18.1889 186.596 18.257 186.961 18.3932C187.327 18.5232 187.639 18.7306 187.899 19.0154C188.166 19.294 188.37 19.6593 188.512 20.1113C188.655 20.5571 188.726 21.0926 188.726 21.718V28.4233H185.828V22.0709C185.828 21.6251 185.773 21.2877 185.661 21.0586C185.556 20.8233 185.401 20.6623 185.197 20.5757C184.993 20.489 184.748 20.4456 184.463 20.4456C184.154 20.4456 183.878 20.5137 183.637 20.65C183.401 20.78 183.203 20.9626 183.042 21.1979C182.881 21.4332 182.761 21.7087 182.68 22.0245C182.606 22.3402 182.569 22.6807 182.569 23.046ZM188.429 22.8974L187.509 22.9717C187.509 22.2907 187.59 21.6592 187.751 21.0772C187.912 20.4952 188.153 19.9906 188.475 19.5634C188.797 19.13 189.197 18.7925 189.673 18.5511C190.156 18.3096 190.716 18.1889 191.354 18.1889C191.825 18.1889 192.252 18.257 192.636 18.3932C193.026 18.5294 193.36 18.7492 193.639 19.0526C193.924 19.356 194.143 19.7553 194.298 20.2506C194.453 20.7397 194.53 21.3403 194.53 22.0523V28.4233H191.614V22.0523C191.614 21.6127 191.559 21.2784 191.447 21.0493C191.342 20.8202 191.187 20.6623 190.983 20.5757C190.785 20.489 190.546 20.4456 190.268 20.4456C189.958 20.4456 189.689 20.5107 189.46 20.6407C189.231 20.7645 189.039 20.9379 188.884 21.1608C188.729 21.3775 188.615 21.6344 188.54 21.9316C188.466 22.2288 188.429 22.5507 188.429 22.8974Z" fill="#0A4061"/>
<path d="M33.1164 41.2946C33.1164 41.1524 33.0953 41.0256 33.053 40.9141C33.0108 40.7988 32.9339 40.6932 32.8224 40.5971C32.711 40.501 32.5534 40.4049 32.3498 40.3089C32.1461 40.209 31.879 40.1071 31.5485 40.0034C31.1719 39.8804 30.8126 39.742 30.4706 39.5883C30.1324 39.4308 29.8307 39.2482 29.5656 39.0407C29.3004 38.8332 29.091 38.5911 28.9372 38.3144C28.7874 38.0377 28.7124 37.7149 28.7124 37.346C28.7124 36.9886 28.7912 36.6658 28.9488 36.3775C29.1063 36.0893 29.3273 35.8434 29.6117 35.6397C29.896 35.4322 30.2304 35.2746 30.6147 35.167C30.999 35.0556 31.4217 34.9998 31.8828 34.9998C32.4977 34.9998 33.0377 35.1094 33.5027 35.3284C33.9715 35.5436 34.3366 35.8472 34.5979 36.2392C34.8592 36.6273 34.9899 37.0789 34.9899 37.5938H33.1222C33.1222 37.3671 33.0742 37.1673 32.9781 36.9943C32.8859 36.8176 32.7437 36.6792 32.5515 36.5793C32.3632 36.4794 32.1269 36.4294 31.8425 36.4294C31.5658 36.4294 31.3333 36.4717 31.145 36.5562C30.9605 36.6369 30.8203 36.7484 30.7242 36.8906C30.632 37.0328 30.5859 37.1884 30.5859 37.3575C30.5859 37.492 30.6204 37.615 30.6896 37.7264C30.7626 37.834 30.8664 37.9359 31.0009 38.0319C31.1392 38.1242 31.3083 38.2125 31.5082 38.2971C31.708 38.3816 31.9367 38.4623 32.1941 38.5392C32.6438 38.6814 33.0415 38.8389 33.3874 39.0119C33.7371 39.1848 34.0311 39.3808 34.2693 39.5998C34.5076 39.8189 34.6863 40.0668 34.8054 40.3435C34.9284 40.6201 34.9899 40.9333 34.9899 41.2831C34.9899 41.6558 34.9169 41.9863 34.7708 42.2745C34.6286 42.5628 34.4211 42.8087 34.1483 43.0124C33.8793 43.2122 33.5565 43.364 33.1798 43.4678C32.8032 43.5715 32.3824 43.6234 31.9174 43.6234C31.4947 43.6234 31.0778 43.5696 30.6666 43.462C30.2554 43.3506 29.8826 43.1815 29.5483 42.9547C29.2178 42.728 28.9526 42.4398 28.7528 42.0901C28.5568 41.7365 28.4588 41.3176 28.4588 40.8334H30.338C30.338 41.0871 30.3745 41.3023 30.4475 41.479C30.5205 41.652 30.6243 41.7922 30.7588 41.8998C30.8971 42.0075 31.0643 42.0843 31.2603 42.1304C31.4563 42.1765 31.6753 42.1996 31.9174 42.1996C32.198 42.1996 32.4247 42.1612 32.5976 42.0843C32.7744 42.0036 32.9051 41.8941 32.9896 41.7557C33.0742 41.6174 33.1164 41.4637 33.1164 41.2946Z" fill="#0A4061"/>
<path d="M39.3074 42.0209V39.3462C39.3074 39.1579 39.2786 38.9965 39.221 38.862C39.1633 38.7275 39.073 38.6218 38.95 38.545C38.8271 38.4681 38.6676 38.4297 38.4716 38.4297C38.3063 38.4297 38.1622 38.4585 38.0392 38.5161C37.9201 38.5738 37.8279 38.6564 37.7626 38.764C37.7011 38.8716 37.6703 39.0042 37.6703 39.1618H35.8718C35.8718 38.8812 35.9352 38.6199 36.0621 38.3778C36.1889 38.1357 36.3695 37.9224 36.6039 37.7379C36.8422 37.5535 37.1265 37.4113 37.457 37.3114C37.7875 37.2076 38.1584 37.1557 38.5696 37.1557C39.0576 37.1557 39.4919 37.2384 39.8723 37.4036C40.2566 37.565 40.5602 37.809 40.7831 38.1357C41.006 38.4585 41.1174 38.8658 41.1174 39.3577V41.969C41.1174 42.3456 41.1386 42.6415 41.1809 42.8567C41.227 43.0681 41.2923 43.2526 41.3768 43.4101V43.5081H39.5611C39.4765 43.3275 39.4131 43.1046 39.3708 42.8394C39.3286 42.5704 39.3074 42.2976 39.3074 42.0209ZM39.5322 39.7036L39.5438 40.6951H38.6503C38.4504 40.6951 38.2775 40.7201 38.1315 40.77C37.9893 40.82 37.874 40.8892 37.7856 40.9775C37.6972 41.0621 37.6319 41.162 37.5896 41.2773C37.5512 41.3887 37.532 41.5117 37.532 41.6462C37.532 41.773 37.5627 41.8883 37.6242 41.9921C37.6857 42.092 37.7702 42.1708 37.8778 42.2284C37.9854 42.2861 38.1103 42.3149 38.2525 42.3149C38.487 42.3149 38.6868 42.2688 38.852 42.1765C39.0211 42.0843 39.1518 41.9729 39.244 41.8422C39.3362 41.7077 39.3824 41.5828 39.3824 41.4675L39.8147 42.2169C39.7455 42.3706 39.661 42.5301 39.5611 42.6953C39.4611 42.8567 39.3343 43.0085 39.1806 43.1507C39.0269 43.2891 38.8405 43.4024 38.6215 43.4908C38.4062 43.5792 38.1469 43.6234 37.8433 43.6234C37.4513 43.6234 37.0958 43.5446 36.7768 43.3871C36.4579 43.2257 36.2023 43.0047 36.0102 42.7242C35.8219 42.4436 35.7277 42.1208 35.7277 41.7557C35.7277 41.4291 35.7873 41.1389 35.9064 40.8853C36.0255 40.6317 36.2042 40.4165 36.4425 40.2397C36.6846 40.0629 36.9882 39.9303 37.3533 39.842C37.7184 39.7497 38.1449 39.7036 38.633 39.7036H39.5322Z" fill="#0A4061"/>
<path d="M44.1956 34.654V43.5081H42.3914V34.654H44.1956Z" fill="#0A4061"/>
<path d="M48.4325 43.6234C47.9368 43.6234 47.4929 43.5446 47.1009 43.3871C46.7089 43.2295 46.3765 43.0124 46.1037 42.7357C45.8347 42.4552 45.6291 42.1323 45.4869 41.7673C45.3447 41.4022 45.2736 41.0121 45.2736 40.5971V40.378C45.2736 39.913 45.3389 39.4846 45.4696 39.0926C45.6002 38.7006 45.7905 38.3605 46.0403 38.0723C46.2939 37.7802 46.6052 37.5554 46.9741 37.3978C47.343 37.2364 47.7638 37.1557 48.2365 37.1557C48.6784 37.1557 49.0723 37.2287 49.4182 37.3748C49.7641 37.517 50.0561 37.7226 50.2944 37.9916C50.5327 38.2567 50.7133 38.5776 50.8363 38.9542C50.9631 39.327 51.0265 39.7459 51.0265 40.2109V40.9487H45.9999V39.7901H49.2626V39.6517C49.2626 39.4327 49.2222 39.2405 49.1415 39.0753C49.0647 38.91 48.9494 38.7832 48.7957 38.6948C48.6458 38.6026 48.4556 38.5565 48.225 38.5565C48.0059 38.5565 47.8234 38.6026 47.6774 38.6948C47.5313 38.7871 47.4141 38.9177 47.3257 39.0868C47.2412 39.2521 47.1797 39.4461 47.1413 39.669C47.1028 39.8881 47.0836 40.1244 47.0836 40.378V40.5971C47.0836 40.8392 47.1163 41.0602 47.1816 41.26C47.2469 41.4598 47.343 41.6308 47.4698 41.773C47.5967 41.9152 47.7504 42.0267 47.931 42.1074C48.1116 42.1881 48.3172 42.2284 48.5478 42.2284C48.8322 42.2284 49.1031 42.1746 49.3606 42.067C49.618 41.9556 49.8409 41.7826 50.0292 41.5482L50.8708 42.5109C50.744 42.6953 50.5653 42.874 50.3348 43.047C50.108 43.2161 49.8352 43.3544 49.5162 43.462C49.1972 43.5696 48.836 43.6234 48.4325 43.6234Z" fill="#0A4061"/>
<path d="M55.223 41.773C55.223 41.6577 55.1865 41.5559 55.1135 41.4675C55.0443 41.3791 54.9175 41.2984 54.733 41.2254C54.5524 41.1524 54.2968 41.0794 53.9663 41.0064C53.6551 40.941 53.3649 40.8565 53.0959 40.7527C52.8269 40.6451 52.5925 40.5164 52.3927 40.3665C52.1928 40.2128 52.0372 40.0322 51.9257 39.8247C51.8143 39.6133 51.7586 39.3731 51.7586 39.1041C51.7586 38.8428 51.8143 38.5949 51.9257 38.3605C52.041 38.1261 52.2063 37.9186 52.4215 37.7379C52.6405 37.5573 52.9057 37.4151 53.217 37.3114C53.5321 37.2076 53.8895 37.1557 54.2891 37.1557C54.8387 37.1557 55.3133 37.2422 55.713 37.4151C56.1126 37.5842 56.4201 37.8225 56.6353 38.1299C56.8505 38.4335 56.9581 38.7813 56.9581 39.1733H55.1596C55.1596 39.0119 55.1288 38.8716 55.0673 38.7525C55.0059 38.6333 54.9117 38.5411 54.7849 38.4758C54.6581 38.4066 54.4909 38.372 54.2834 38.372C54.122 38.372 53.9798 38.4008 53.8568 38.4585C53.7377 38.5123 53.6435 38.5872 53.5744 38.6833C53.509 38.7794 53.4764 38.8908 53.4764 39.0176C53.4764 39.106 53.4956 39.1867 53.534 39.2597C53.5763 39.3289 53.6397 39.3942 53.7242 39.4557C53.8126 39.5134 53.926 39.5653 54.0643 39.6114C54.2065 39.6575 54.3795 39.7017 54.5831 39.744C55.0174 39.8247 55.4132 39.938 55.7706 40.0841C56.1318 40.2301 56.4201 40.4318 56.6353 40.6893C56.8543 40.9468 56.9638 41.2869 56.9638 41.7096C56.9638 41.9863 56.9004 42.24 56.7736 42.4705C56.6506 42.7011 56.4719 42.9029 56.2375 43.0758C56.0031 43.2487 55.7226 43.3832 55.3959 43.4793C55.0693 43.5754 54.7003 43.6234 54.2891 43.6234C53.7012 43.6234 53.2035 43.5177 52.7962 43.3064C52.3888 43.095 52.0814 42.8298 51.8739 42.5109C51.6702 42.1881 51.5683 41.8576 51.5683 41.5194H53.2573C53.265 41.7269 53.3169 41.896 53.413 42.0267C53.5129 42.1573 53.6416 42.2534 53.7992 42.3149C53.9567 42.3725 54.1335 42.4014 54.3295 42.4014C54.5255 42.4014 54.6888 42.3745 54.8195 42.3207C54.9501 42.2669 55.05 42.1938 55.1192 42.1016C55.1884 42.0055 55.223 41.896 55.223 41.773Z" fill="#0A4061"/>
<path d="M62.1749 39.058L63.8754 37.98C64.1136 37.8263 64.2654 37.6784 64.3308 37.5362C64.3999 37.394 64.4345 37.2441 64.4345 37.0866C64.4345 36.9175 64.373 36.7599 64.2501 36.6139C64.1271 36.4678 63.9542 36.3948 63.7313 36.3948C63.5699 36.3948 63.4334 36.4313 63.322 36.5044C63.2144 36.5774 63.1318 36.6754 63.0741 36.7983C63.0203 36.9175 62.9934 37.0501 62.9934 37.1961C62.9934 37.369 63.0395 37.5458 63.1318 37.7264C63.2278 37.9032 63.3547 38.0896 63.5122 38.2856C63.6698 38.4815 63.8465 38.6968 64.0425 38.9312L67.9912 43.5081H65.9679L62.7455 39.8131C62.4765 39.475 62.2421 39.1637 62.0423 38.8793C61.8425 38.5949 61.6868 38.3201 61.5754 38.055C61.4639 37.786 61.4082 37.5093 61.4082 37.2249C61.4082 36.783 61.5043 36.3948 61.6964 36.0605C61.8886 35.7262 62.1576 35.4648 62.5034 35.2765C62.8531 35.0882 63.2643 34.9941 63.737 34.9941C64.179 34.9941 64.5613 35.0844 64.8841 35.265C65.207 35.4456 65.4567 35.6858 65.6335 35.9856C65.8103 36.2853 65.8987 36.6139 65.8987 36.9713C65.8987 37.2287 65.8506 37.4709 65.7546 37.6976C65.6585 37.9205 65.5259 38.1261 65.3568 38.3144C65.1916 38.4988 65.0014 38.6679 64.7862 38.8216L62.9012 40.1532C62.7897 40.2647 62.7033 40.3761 62.6418 40.4876C62.5841 40.599 62.5438 40.7085 62.5207 40.8161C62.4977 40.9237 62.4861 41.0333 62.4861 41.1447C62.4861 41.3561 62.5303 41.5444 62.6187 41.7096C62.7071 41.871 62.8301 41.9978 62.9877 42.0901C63.1452 42.1823 63.3239 42.2284 63.5237 42.2284C63.835 42.2284 64.1367 42.1592 64.4288 42.0209C64.7247 41.8826 64.9879 41.6866 65.2185 41.4329C65.4491 41.1793 65.6316 40.8776 65.7661 40.5279C65.9044 40.1744 65.9736 39.7862 65.9736 39.3635H67.4954C67.4954 39.8054 67.4512 40.2262 67.3628 40.6259C67.2745 41.0217 67.1323 41.3887 66.9363 41.7269C66.7403 42.0613 66.477 42.3572 66.1466 42.6146C66.1273 42.63 66.0928 42.655 66.0428 42.6896C65.9967 42.7242 65.9621 42.7491 65.939 42.7645C65.5547 43.0566 65.1628 43.2737 64.7631 43.4159C64.3673 43.5581 63.9157 43.6292 63.4085 43.6292C62.8474 43.6292 62.3613 43.5273 61.9501 43.3237C61.5427 43.12 61.2276 42.8394 61.0047 42.4821C60.7818 42.1247 60.6704 41.7154 60.6704 41.2542C60.6704 40.9237 60.7338 40.6355 60.8606 40.3896C60.9912 40.1398 61.1699 39.9092 61.3967 39.6978C61.6234 39.4826 61.8828 39.2694 62.1749 39.058Z" fill="#0A4061"/>
<path d="M76.1536 41.2946C76.1536 41.1524 76.1325 41.0256 76.0902 40.9141C76.0479 40.7988 75.971 40.6932 75.8596 40.5971C75.7482 40.501 75.5906 40.4049 75.3869 40.3089C75.1832 40.209 74.9162 40.1071 74.5857 40.0034C74.2091 39.8804 73.8497 39.742 73.5077 39.5883C73.1695 39.4308 72.8679 39.2482 72.6027 39.0407C72.3375 38.8332 72.1281 38.5911 71.9744 38.3144C71.8245 38.0377 71.7496 37.7149 71.7496 37.346C71.7496 36.9886 71.8284 36.6658 71.9859 36.3775C72.1435 36.0893 72.3644 35.8434 72.6488 35.6397C72.9332 35.4322 73.2675 35.2746 73.6518 35.167C74.0361 35.0556 74.4588 34.9998 74.92 34.9998C75.5349 34.9998 76.0748 35.1094 76.5398 35.3284C77.0086 35.5436 77.3737 35.8472 77.635 36.2392C77.8964 36.6273 78.027 37.0789 78.027 37.5938H76.1594C76.1594 37.3671 76.1113 37.1673 76.0152 36.9943C75.923 36.8176 75.7808 36.6792 75.5887 36.5793C75.4004 36.4794 75.164 36.4294 74.8797 36.4294C74.603 36.4294 74.3705 36.4717 74.1822 36.5562C73.9977 36.6369 73.8574 36.7484 73.7614 36.8906C73.6691 37.0328 73.623 37.1884 73.623 37.3575C73.623 37.492 73.6576 37.615 73.7268 37.7264C73.7998 37.834 73.9035 37.9359 74.038 38.0319C74.1764 38.1242 74.3455 38.2125 74.5453 38.2971C74.7451 38.3816 74.9738 38.4623 75.2313 38.5392C75.6809 38.6814 76.0786 38.8389 76.4245 39.0119C76.7742 39.1848 77.0682 39.3808 77.3065 39.5998C77.5447 39.8189 77.7234 40.0668 77.8426 40.3435C77.9655 40.6201 78.027 40.9333 78.027 41.2831C78.027 41.6558 77.954 41.9863 77.808 42.2745C77.6658 42.5628 77.4583 42.8087 77.1854 43.0124C76.9164 43.2122 76.5936 43.364 76.217 43.4678C75.8404 43.5715 75.4196 43.6234 74.9546 43.6234C74.5319 43.6234 74.1149 43.5696 73.7037 43.462C73.2925 43.3506 72.9197 43.1815 72.5854 42.9547C72.2549 42.728 71.9898 42.4398 71.7899 42.0901C71.5939 41.7365 71.4959 41.3176 71.4959 40.8334H73.3751C73.3751 41.0871 73.4116 41.3023 73.4847 41.479C73.5577 41.652 73.6614 41.7922 73.7959 41.8998C73.9343 42.0075 74.1015 42.0843 74.2974 42.1304C74.4934 42.1765 74.7125 42.1996 74.9546 42.1996C75.2351 42.1996 75.4619 42.1612 75.6348 42.0843C75.8116 42.0036 75.9422 41.8941 76.0268 41.7557C76.1113 41.6174 76.1536 41.4637 76.1536 41.2946Z" fill="#0A4061"/>
<path d="M81.9814 43.6234C81.4857 43.6234 81.0418 43.5446 80.6498 43.3871C80.2579 43.2295 79.9254 43.0124 79.6526 42.7357C79.3836 42.4552 79.178 42.1323 79.0358 41.7673C78.8936 41.4022 78.8225 41.0121 78.8225 40.5971V40.378C78.8225 39.913 78.8878 39.4846 79.0185 39.0926C79.1492 38.7006 79.3394 38.3605 79.5892 38.0723C79.8428 37.7802 80.1541 37.5554 80.523 37.3978C80.8919 37.2364 81.3127 37.1557 81.7854 37.1557C82.2274 37.1557 82.6213 37.2287 82.9671 37.3748C83.313 37.517 83.6051 37.7226 83.8433 37.9916C84.0816 38.2567 84.2622 38.5776 84.3852 38.9542C84.512 39.327 84.5754 39.7459 84.5754 40.2109V40.9487H79.5488V39.7901H82.8115V39.6517C82.8115 39.4327 82.7711 39.2405 82.6904 39.0753C82.6136 38.91 82.4983 38.7832 82.3446 38.6948C82.1947 38.6026 82.0045 38.5565 81.7739 38.5565C81.5548 38.5565 81.3723 38.6026 81.2263 38.6948C81.0802 38.7871 80.963 38.9177 80.8746 39.0868C80.7901 39.2521 80.7286 39.4461 80.6902 39.669C80.6518 39.8881 80.6325 40.1244 80.6325 40.378V40.5971C80.6325 40.8392 80.6652 41.0602 80.7305 41.26C80.7959 41.4598 80.8919 41.6308 81.0188 41.773C81.1456 41.9152 81.2993 42.0267 81.4799 42.1074C81.6605 42.1881 81.8661 42.2284 82.0967 42.2284C82.3811 42.2284 82.652 42.1746 82.9095 42.067C83.167 41.9556 83.3899 41.7826 83.5782 41.5482L84.4198 42.5109C84.2929 42.6953 84.1143 42.874 83.8837 43.047C83.6569 43.2161 83.3841 43.3544 83.0651 43.462C82.7462 43.5696 82.3849 43.6234 81.9814 43.6234Z" fill="#0A4061"/>
<path d="M87.2559 38.7237V43.5081H85.4574V37.271H87.1463L87.2559 38.7237ZM89.1178 37.2249L89.0889 38.9024C89.0121 38.8908 88.9122 38.8812 88.7892 38.8735C88.6662 38.862 88.5605 38.8562 88.4721 38.8562C88.2416 38.8562 88.0417 38.8851 87.8727 38.9427C87.7074 38.9965 87.5691 39.0772 87.4576 39.1848C87.35 39.2924 87.2693 39.4269 87.2155 39.5883C87.1617 39.7459 87.1348 39.9284 87.1348 40.1359L86.7947 39.9688C86.7947 39.5576 86.8351 39.181 86.9158 38.8389C86.9965 38.4969 87.1137 38.201 87.2674 37.9512C87.4211 37.6976 87.6094 37.5016 87.8323 37.3633C88.0552 37.2249 88.3088 37.1557 88.5932 37.1557C88.6854 37.1557 88.7796 37.1615 88.8757 37.173C88.9717 37.1846 89.0524 37.2018 89.1178 37.2249Z" fill="#0A4061"/>
<path d="M92.1441 42.2342L93.4468 37.271H95.3376L93.2681 43.5081H92.1326L92.1441 42.2342ZM91.3025 37.271L92.5995 42.24L92.611 43.5081H91.4754L89.406 37.271H91.3025Z" fill="#0A4061"/>
<path d="M97.897 37.271V43.5081H96.0927V37.271H97.897ZM95.9832 35.657C95.9832 35.3957 96.0754 35.1824 96.2599 35.0171C96.4443 34.848 96.6864 34.7635 96.9862 34.7635C97.2859 34.7635 97.5281 34.848 97.7125 35.0171C97.9008 35.1824 97.995 35.3957 97.995 35.657C97.995 35.9145 97.9008 36.1277 97.7125 36.2968C97.5281 36.4621 97.2859 36.5447 96.9862 36.5447C96.6864 36.5447 96.4443 36.4621 96.2599 36.2968C96.0754 36.1277 95.9832 35.9145 95.9832 35.657Z" fill="#0A4061"/>
<path d="M101.799 42.2227C101.992 42.2227 102.159 42.1861 102.301 42.1131C102.443 42.0401 102.553 41.9383 102.63 41.8076C102.71 41.6731 102.751 41.5117 102.751 41.3234H104.445C104.445 41.7769 104.328 42.1765 104.094 42.5224C103.863 42.8683 103.552 43.1392 103.16 43.3352C102.768 43.5273 102.326 43.6234 101.834 43.6234C101.35 43.6234 100.927 43.5446 100.566 43.3871C100.205 43.2257 99.903 43.0009 99.6609 42.7126C99.4188 42.4244 99.2362 42.0901 99.1133 41.7096C98.9941 41.3253 98.9346 40.9103 98.9346 40.4645V40.3146C98.9346 39.8727 98.9941 39.4596 99.1133 39.0753C99.2362 38.691 99.4188 38.3547 99.6609 38.0665C99.903 37.7783 100.203 37.5554 100.56 37.3978C100.921 37.2364 101.344 37.1557 101.828 37.1557C102.339 37.1557 102.791 37.2537 103.183 37.4497C103.579 37.6457 103.888 37.9282 104.111 38.2971C104.334 38.6622 104.445 39.1022 104.445 39.6171H102.751C102.751 39.4173 102.714 39.2386 102.641 39.081C102.572 38.9196 102.464 38.7928 102.318 38.7006C102.176 38.6045 101.999 38.5565 101.788 38.5565C101.569 38.5565 101.388 38.6045 101.246 38.7006C101.108 38.7928 101.002 38.9216 100.929 39.0868C100.856 39.2521 100.806 39.4404 100.779 39.6517C100.752 39.8592 100.739 40.0802 100.739 40.3146V40.4645C100.739 40.7028 100.752 40.9295 100.779 41.1447C100.806 41.3561 100.856 41.5425 100.929 41.7039C101.006 41.8653 101.114 41.9921 101.252 42.0843C101.39 42.1765 101.573 42.2227 101.799 42.2227Z" fill="#0A4061"/>
<path d="M108.279 43.6234C107.783 43.6234 107.339 43.5446 106.947 43.3871C106.555 43.2295 106.223 43.0124 105.95 42.7357C105.681 42.4552 105.475 42.1323 105.333 41.7673C105.191 41.4022 105.12 41.0121 105.12 40.5971V40.378C105.12 39.913 105.185 39.4846 105.316 39.0926C105.446 38.7006 105.637 38.3605 105.886 38.0723C106.14 37.7802 106.451 37.5554 106.82 37.3978C107.189 37.2364 107.61 37.1557 108.083 37.1557C108.525 37.1557 108.919 37.2287 109.264 37.3748C109.61 37.517 109.902 37.7226 110.141 37.9916C110.379 38.2567 110.559 38.5776 110.682 38.9542C110.809 39.327 110.873 39.7459 110.873 40.2109V40.9487H105.846V39.7901H109.109V39.6517C109.109 39.4327 109.068 39.2405 108.988 39.0753C108.911 38.91 108.796 38.7832 108.642 38.6948C108.492 38.6026 108.302 38.5565 108.071 38.5565C107.852 38.5565 107.67 38.6026 107.524 38.6948C107.378 38.7871 107.26 38.9177 107.172 39.0868C107.087 39.2521 107.026 39.4461 106.987 39.669C106.949 39.8881 106.93 40.1244 106.93 40.378V40.5971C106.93 40.8392 106.962 41.0602 107.028 41.26C107.093 41.4598 107.189 41.6308 107.316 41.773C107.443 41.9152 107.597 42.0267 107.777 42.1074C107.958 42.1881 108.163 42.2284 108.394 42.2284C108.678 42.2284 108.949 42.1746 109.207 42.067C109.464 41.9556 109.687 41.7826 109.875 41.5482L110.717 42.5109C110.59 42.6953 110.412 42.874 110.181 43.047C109.954 43.2161 109.681 43.3544 109.362 43.462C109.043 43.5696 108.682 43.6234 108.279 43.6234Z" fill="#0A4061"/>
<path fill-rule="evenodd" clip-rule="evenodd" d="M6.3839 2.03275C6.3839 1.03664 7.19141 0.229126 8.18752 0.229126H194.932C198.507 0.229126 201.687 2.50232 202.844 5.8854L217.235 47.9657C219.091 53.3922 215.058 59.0339 209.323 59.0339H31.8014C30.8053 59.0339 29.9978 58.2264 29.9978 57.2303C29.9978 56.2342 30.8053 55.4267 31.8014 55.4267H209.323C212.584 55.4267 214.878 52.2186 213.822 49.133L199.431 7.05267C198.773 5.12897 196.965 3.83637 194.932 3.83637H8.18752C7.19141 3.83637 6.3839 3.02886 6.3839 2.03275Z" fill="#4FB0E8"/>
<path fill-rule="evenodd" clip-rule="evenodd" d="M0 0.862451C0.751959 0.0149677 1.36363 -0.187568 2.92778 0.165533L13.2991 43.7357C13.072 43.7253 12.8411 43.7209 12.6091 43.724C11.8536 43.7342 11.0361 43.8246 10.2862 44.075L0 0.862451ZM10.4722 45.427C10.3839 45.4752 10.2979 45.5264 10.2147 45.5807C10.1046 47.2873 10.7501 49.1097 11.1092 49.7869C11.6349 50.7783 11.6799 51.7311 11.6685 52.5082L6.80001 53.9108C7.41191 54.4123 8.08233 55.0826 8.68857 55.8487C9.57393 56.9676 10.374 58.3553 10.6394 59.8061L29.1511 54.5336C28.3931 51.9222 27.2503 50.71 24.2401 48.8865L17.6235 50.7927C17.0102 50.6136 16.3767 50.3698 15.9606 50.0536C15.2906 49.5444 14.3177 46.5861 14.0022 45.1284C13.5675 45.0796 13.0988 45.0506 12.6271 45.057C11.8212 45.0679 11.0717 45.1813 10.4722 45.427ZM5.68643 54.2645C6.31802 54.6973 7.16917 55.4666 7.94016 56.4409C8.78617 57.5101 9.48344 58.7612 9.70455 59.9999L5.68643 56.3764V54.2645Z" fill="#0A4061"/>
</svg>
